<?xml version="1.0" encoding="UTF-8"?>
<svg width="38.861821px" height="18.37266px" viewBox="0 0 38.861821 18.37266" version="1.1" xmlns="http://www.w3.org/2000/svg" xmlns:xlink="http://www.w3.org/1999/xlink">
    <title>object</title>
    <g id="Page-1" stroke="none" stroke-width="1" fill="none" fill-rule="evenodd">
        <g id="facet-final" transform="translate(0, -0,0071)" fill="#0C4DA2" fill-rule="nonzero">
            <g id="object" transform="translate(0, 0,0071)">
                <polygon id="path1538" points="0 9.18633 0 0 9.186333 0 18.372668 0 18.372668 2.62467 18.372668 5.24933 11.853333 5.24933 5.334 5.24933 5.334 6.18067 5.334 7.112 9.271 7.112 13.207999 7.112 13.207999 9.18633 13.207999 11.26067 9.271 11.26067 5.334 11.26067 5.334 12.14967 5.334 13.03867 11.853333 13.03867 18.372668 13.03867 18.372668 15.70566 18.372668 18.37266 9.186333 18.37266 0 18.37266"></polygon>
                <path d="M28.575001,18.27722 C24.871141,17.81457 21.754531,15.05884 20.827101,11.42647 C20.544611,10.32007 20.495221,9.29976 20.492191,4.5085 L20.489191,0 L23.156191,0 L25.823191,0 L25.823191,4.80821 C25.823191,8.8549 25.843791,9.69534 25.952981,10.11471 C26.251341,11.26021 26.998711,12.16397 28.067231,12.67142 C29.565491,13.38293 31.338381,13.05154 32.504321,11.84204 C32.956621,11.37285 33.422411,10.43505 33.529001,9.779 C33.575401,9.49361 33.611801,7.23972 33.612001,4.6355 L33.612491,0 L36.237151,0 L38.861821,0 L38.861821,5.02658 C38.861821,9.06685 38.837421,10.19238 38.737551,10.76274 C37.899061,15.55051 33.396821,18.87953 28.574821,18.27722 L28.575001,18.27722 Z" id="path1536"></path>
            </g>
        </g>
    </g>
</svg>