<?xml version="1.0" encoding="UTF-8"?>
<svg width="184px" height="74px" viewBox="0 0 184 74" version="1.1" xmlns="http://www.w3.org/2000/svg" xmlns:xlink="http://www.w3.org/1999/xlink">
    <title>object-v4</title>
    <g id="Page-1" stroke="none" stroke-width="1" fill="none" fill-rule="evenodd">
        <g id="logo-dnnt-NEW-outlines" transform="translate(-1033.000000, -123.000000)" fill-rule="nonzero">
            <g id="object-v4" transform="translate(1033.759766, 123.234375)">
                <g id="desc" transform="translate(0.684326, 56.640625)" fill="#706F6F">
                    <path d="M0,13.125 L0,0.68359375 L3.51196289,0.68359375 C4.59431966,0.68359375 5.55135091,0.922851562 6.38305664,1.40136719 C7.21476237,1.87988281 7.85705566,2.56062826 8.30993652,3.44360352 C8.76281738,4.32657878 8.99210612,5.34057617 8.99780273,6.4855957 L8.99780273,7.28027344 C8.99780273,8.45377604 8.7713623,9.48201497 8.31848145,10.3649902 C7.86560059,11.2479655 7.21903483,11.9258626 6.37878418,12.3986816 C5.53853353,12.8715007 4.56013997,13.1136068 3.44360352,13.125 L0,13.125 Z M1.640625,2.03369141 L1.640625,11.7834473 L3.36669922,11.7834473 C4.63134766,11.7834473 5.61543783,11.3903809 6.31896973,10.604248 C7.02250163,9.81811523 7.37426758,8.69873047 7.37426758,7.24609375 L7.37426758,6.51977539 C7.37426758,5.10701497 7.04243978,4.00899251 6.37878418,3.22570801 C5.71512858,2.4424235 4.77376302,2.04508464 3.5546875,2.03369141 L1.640625,2.03369141 Z" id="Shape"></path>
                    <path d="M12.9455566,13.125 L11.3562012,13.125 L11.3562012,3.87939453 L12.9455566,3.87939453 L12.9455566,13.125 Z M12.9626465,0.00854492188 L14.876709,0.00854492188 L12.5866699,2.52075195 L11.3134766,2.52075195 L12.9626465,0.00854492188 Z" id="Shape"></path>
                    <polygon id="Path" points="17.2692871 13.125 15.6884766 13.125 15.6884766 0 17.2692871 0"></polygon>
                    <path d="M25.5065918,13.125 C25.415446,12.9427083 25.34139,12.6180013 25.2844238,12.1508789 C24.5495605,12.9142253 23.6722819,13.2958984 22.6525879,13.2958984 C21.7411296,13.2958984 20.9934489,13.0381266 20.4095459,12.522583 C19.8256429,12.0070394 19.5336914,11.3533529 19.5336914,10.5615234 C19.5336914,9.59879557 19.8996989,8.85111491 20.6317139,8.31848145 C21.3637288,7.78584798 22.3933919,7.51953125 23.7207031,7.51953125 L25.2587891,7.51953125 L25.2587891,6.79321289 C25.2587891,6.24064128 25.0935872,5.8005778 24.7631836,5.47302246 C24.4327799,5.14546712 23.9457194,4.98168945 23.302002,4.98168945 C22.7380371,4.98168945 22.2652181,5.12410482 21.8835449,5.40893555 C21.5018717,5.69376628 21.3110352,6.03841146 21.3110352,6.44287109 L19.7216797,6.44287109 C19.7216797,5.98144531 19.8854574,5.53568522 20.2130127,5.10559082 C20.540568,4.67549642 20.984904,4.3351237 21.5460205,4.08447266 C22.107137,3.83382161 22.7237956,3.70849609 23.3959961,3.70849609 C24.461263,3.70849609 25.2958171,3.97481283 25.8996582,4.50744629 C26.5034993,5.04007975 26.8168132,5.77351888 26.8395996,6.70776367 L26.8395996,10.9631348 C26.8395996,11.8119303 26.9478353,12.4869792 27.1643066,12.9882812 L27.1643066,13.125 L25.5065918,13.125 Z M22.8833008,11.920166 C23.3789062,11.920166 23.848877,11.7919922 24.2932129,11.5356445 C24.7375488,11.2792969 25.0594076,10.9460449 25.2587891,10.5358887 L25.2587891,8.63891602 L24.0197754,8.63891602 C22.0829264,8.63891602 21.114502,9.20572917 21.114502,10.3393555 C21.114502,10.8349609 21.2797038,11.2223307 21.6101074,11.5014648 C21.9405111,11.780599 22.3649089,11.920166 22.8833008,11.920166 Z" id="Shape"></path>
                    <path d="M35.1452637,3.87939453 L35.1965332,5.04150391 C35.9029134,4.15283203 36.825765,3.70849609 37.9650879,3.70849609 C39.9190267,3.70849609 40.904541,4.81079102 40.9216309,7.01538086 L40.9216309,13.125 L39.3408203,13.125 L39.3408203,7.00683594 C39.3351237,6.34033203 39.1827393,5.84757487 38.883667,5.52856445 C38.5845947,5.20955404 38.1188965,5.05004883 37.4865723,5.05004883 C36.973877,5.05004883 36.5238444,5.18676758 36.1364746,5.46020508 C35.7491048,5.73364258 35.4471842,6.0925293 35.2307129,6.53686523 L35.2307129,13.125 L33.6499023,13.125 L33.6499023,3.87939453 L35.1452637,3.87939453 Z" id="Path"></path>
                    <path d="M47.142334,13.2958984 C45.8890788,13.2958984 44.8693848,12.884318 44.083252,12.0611572 C43.2971191,11.2379964 42.9040527,10.1371257 42.9040527,8.75854492 L42.9040527,8.46801758 C42.9040527,7.55086263 43.0792236,6.73197428 43.4295654,6.01135254 C43.7799072,5.29073079 44.2698161,4.72676595 44.899292,4.31945801 C45.5287679,3.91215007 46.2109375,3.70849609 46.9458008,3.70849609 C48.1477865,3.70849609 49.0820312,4.10441081 49.7485352,4.89624023 C50.4150391,5.68806966 50.748291,6.82169596 50.748291,8.29711914 L50.748291,8.95507812 L44.4848633,8.95507812 C44.5076497,9.86653646 44.7739665,10.6028239 45.2838135,11.1639404 C45.7936605,11.725057 46.4416504,12.0056152 47.2277832,12.0056152 C47.7860514,12.0056152 48.2588704,11.8916829 48.6462402,11.6638184 C49.03361,11.4359538 49.3725586,11.1340332 49.6630859,10.7580566 L50.6286621,11.5100098 C49.8539225,12.7006022 48.6918132,13.2958984 47.142334,13.2958984 Z M46.9458008,5.00732422 C46.3077799,5.00732422 45.7722982,5.23946126 45.3393555,5.70373535 C44.9064128,6.16800944 44.6386719,6.81884766 44.5361328,7.65625 L49.1674805,7.65625 L49.1674805,7.53662109 C49.1219076,6.73339844 48.9054362,6.11104329 48.5180664,5.66955566 C48.1306966,5.22806803 47.6066081,5.00732422 46.9458008,5.00732422 Z" id="Shape"></path>
                    <path d="M52.1923828,8.42529297 C52.1923828,7.00683594 52.5284831,5.86608887 53.2006836,5.00305176 C53.8728841,4.14001465 54.7530111,3.70849609 55.8410645,3.70849609 C56.9234212,3.70849609 57.7807617,4.07877604 58.4130859,4.81933594 L58.4130859,0 L59.9938965,0 L59.9938965,13.125 L58.5412598,13.125 L58.4643555,12.1337891 C57.8320312,12.9085286 56.9519043,13.2958984 55.8239746,13.2958984 C54.7530111,13.2958984 53.8800049,12.8572591 53.2049561,11.9799805 C52.5299072,11.1027018 52.1923828,9.95768229 52.1923828,8.54492188 L52.1923828,8.42529297 Z M53.7731934,8.60473633 C53.7731934,9.65291341 53.9896647,10.4732259 54.4226074,11.0656738 C54.8555501,11.6581217 55.4536947,11.9543457 56.217041,11.9543457 C57.2196452,11.9543457 57.9516602,11.5043132 58.4130859,10.604248 L58.4130859,6.35742188 C57.9402669,5.48583984 57.2139486,5.05004883 56.2341309,5.05004883 C55.4593913,5.05004883 54.8555501,5.34912109 54.4226074,5.94726562 C53.9896647,6.54541016 53.7731934,7.43123372 53.7731934,8.60473633 Z" id="Shape"></path>
                    <path d="M62.0275879,8.41674805 C62.0275879,7.51098633 62.2056071,6.69637044 62.5616455,5.97290039 C62.9176839,5.24943034 63.4132894,4.69116211 64.0484619,4.2980957 C64.6836344,3.9050293 65.4085286,3.70849609 66.2231445,3.70849609 C67.4820964,3.70849609 68.5003662,4.14428711 69.2779541,5.01586914 C70.055542,5.88745117 70.4443359,7.04671224 70.4443359,8.49365234 L70.4443359,8.60473633 C70.4443359,9.50480143 70.2720133,10.3122965 69.9273682,11.0272217 C69.582723,11.7421468 69.0899658,12.2989909 68.4490967,12.6977539 C67.8082275,13.0965169 67.0719401,13.2958984 66.2402344,13.2958984 C64.9869792,13.2958984 63.9715576,12.8601074 63.1939697,11.9885254 C62.4163818,11.1169434 62.0275879,9.96337891 62.0275879,8.52783203 L62.0275879,8.41674805 Z M63.6169434,8.60473633 C63.6169434,9.63012695 63.854777,10.4532878 64.3304443,11.0742188 C64.8061117,11.6951497 65.4427083,12.0056152 66.2402344,12.0056152 C67.043457,12.0056152 67.6814779,11.6908773 68.1542969,11.0614014 C68.6271159,10.4319255 68.8635254,9.55037435 68.8635254,8.41674805 C68.8635254,7.40275065 68.6228434,6.581014 68.1414795,5.95153809 C67.6601156,5.32206217 67.0206706,5.00732422 66.2231445,5.00732422 C65.4427083,5.00732422 64.8132324,5.31778971 64.3347168,5.9387207 C63.8562012,6.55965169 63.6169434,7.44832357 63.6169434,8.60473633 Z" id="Shape"></path>
                    <path d="M77.8100586,10.6726074 C77.8100586,10.2453613 77.6491292,9.91353353 77.3272705,9.67712402 C77.0054118,9.44071452 76.4442952,9.23706055 75.6439209,9.06616211 C74.8435465,8.89526367 74.208374,8.69018555 73.7384033,8.45092773 C73.2684326,8.21166992 72.9209391,7.92683919 72.6959229,7.59643555 C72.4709066,7.2660319 72.3583984,6.87296549 72.3583984,6.41723633 C72.3583984,5.65958659 72.678833,5.01871745 73.3197021,4.49462891 C73.9605713,3.97054036 74.7794596,3.70849609 75.7763672,3.70849609 C76.8245443,3.70849609 77.674764,3.97908529 78.3270264,4.52026367 C78.9792887,5.06144206 79.3054199,5.75358073 79.3054199,6.59667969 L77.7160645,6.59667969 C77.7160645,6.16373698 77.5323486,5.79060872 77.164917,5.47729492 C76.7974854,5.16398112 76.3346354,5.00732422 75.7763672,5.00732422 C75.2010091,5.00732422 74.7509766,5.13264974 74.4262695,5.38330078 C74.1015625,5.63395182 73.939209,5.96150716 73.939209,6.3659668 C73.939209,6.74763997 74.0901693,7.03531901 74.3920898,7.22900391 C74.6940104,7.4226888 75.2394613,7.60782878 76.0284424,7.78442383 C76.8174235,7.96101888 77.4568685,8.17179362 77.9467773,8.41674805 C78.4366862,8.66170247 78.7998454,8.95650228 79.0362549,9.30114746 C79.2726644,9.64579264 79.3908691,10.065918 79.3908691,10.5615234 C79.3908691,11.3875326 79.0604655,12.049764 78.3996582,12.5482178 C77.7388509,13.0466715 76.8815104,13.2958984 75.8276367,13.2958984 C75.0870768,13.2958984 74.4319661,13.1648763 73.8623047,12.902832 C73.2926432,12.6407878 72.8468831,12.2747803 72.5250244,11.8048096 C72.2031657,11.3348389 72.0422363,10.826416 72.0422363,10.279541 L73.6230469,10.279541 C73.6515299,10.8093262 73.8637288,11.2294515 74.2596436,11.539917 C74.6555583,11.8503825 75.1782227,12.0056152 75.8276367,12.0056152 C76.4257812,12.0056152 76.905721,11.8845622 77.2674561,11.6424561 C77.6291911,11.4003499 77.8100586,11.0770671 77.8100586,10.6726074 Z" id="Path"></path>
                    <path d="M83.5949707,1.640625 L83.5949707,3.87939453 L85.3210449,3.87939453 L85.3210449,5.10131836 L83.5949707,5.10131836 L83.5949707,10.8349609 C83.5949707,11.2052409 83.671875,11.4829508 83.8256836,11.6680908 C83.9794922,11.8532308 84.2415365,11.9458008 84.6118164,11.9458008 C84.7941081,11.9458008 85.0447591,11.9116211 85.3637695,11.8432617 L85.3637695,13.125 C84.9479167,13.2389323 84.543457,13.2958984 84.1503906,13.2958984 C83.4440104,13.2958984 82.911377,13.0822754 82.5524902,12.6550293 C82.1936035,12.2277832 82.0141602,11.6210938 82.0141602,10.8349609 L82.0141602,5.10131836 L80.3308105,5.10131836 L80.3308105,3.87939453 L82.0141602,3.87939453 L82.0141602,1.640625 L83.5949707,1.640625 Z" id="Path"></path>
                    <path d="M92.8747559,12.2106934 C92.2595215,12.9341634 91.3566081,13.2958984 90.1660156,13.2958984 C89.1805013,13.2958984 88.4299723,13.0096436 87.9144287,12.4371338 C87.3988851,11.864624 87.138265,11.0172526 87.1325684,9.89501953 L87.1325684,3.87939453 L88.7133789,3.87939453 L88.7133789,9.85229492 C88.7133789,11.2536621 89.2830404,11.9543457 90.4223633,11.9543457 C91.6300456,11.9543457 92.4332682,11.5043132 92.8320312,10.604248 L92.8320312,3.87939453 L94.4128418,3.87939453 L94.4128418,13.125 L92.9089355,13.125 L92.8747559,12.2106934 Z" id="Path"></path>
                    <path d="M104.624023,8.60473633 C104.624023,10.0118001 104.302165,11.1454264 103.658447,12.0056152 C103.01473,12.865804 102.143148,13.2958984 101.043701,13.2958984 C99.9214681,13.2958984 99.0384928,12.93986 98.3947754,12.2277832 L98.3947754,16.6796875 L96.8139648,16.6796875 L96.8139648,3.87939453 L98.2580566,3.87939453 L98.3349609,4.90478516 C98.9786784,4.10725911 99.8730469,3.70849609 101.018066,3.70849609 C102.128906,3.70849609 103.007609,4.12719727 103.654175,4.96459961 C104.300741,5.80200195 104.624023,6.96695964 104.624023,8.45947266 L104.624023,8.60473633 Z M103.043213,8.42529297 C103.043213,7.3828125 102.821045,6.55965169 102.376709,5.95581055 C101.932373,5.3519694 101.322835,5.05004883 100.548096,5.05004883 C99.5910645,5.05004883 98.873291,5.47444661 98.3947754,6.32324219 L98.3947754,10.7409668 C98.8675944,11.5840658 99.5910645,12.0056152 100.565186,12.0056152 C101.322835,12.0056152 101.925252,11.7051188 102.372437,11.104126 C102.819621,10.5031331 103.043213,9.6101888 103.043213,8.42529297 Z" id="Shape"></path>
                    <path d="M108.127441,3.87939453 L108.178711,5.04150391 C108.885091,4.15283203 109.807943,3.70849609 110.947266,3.70849609 C112.901204,3.70849609 113.886719,4.81079102 113.903809,7.01538086 L113.903809,13.125 L112.322998,13.125 L112.322998,7.00683594 C112.317301,6.34033203 112.164917,5.84757487 111.865845,5.52856445 C111.566772,5.20955404 111.101074,5.05004883 110.46875,5.05004883 C109.956055,5.05004883 109.506022,5.18676758 109.118652,5.46020508 C108.731283,5.73364258 108.429362,6.0925293 108.212891,6.53686523 L108.212891,13.125 L106.63208,13.125 L106.63208,3.87939453 L108.127441,3.87939453 Z" id="Path"></path>
                    <path d="M121.99585,13.125 C121.904704,12.9427083 121.830648,12.6180013 121.773682,12.1508789 C121.038818,12.9142253 120.16154,13.2958984 119.141846,13.2958984 C118.230387,13.2958984 117.482707,13.0381266 116.898804,12.522583 C116.314901,12.0070394 116.022949,11.3533529 116.022949,10.5615234 C116.022949,9.59879557 116.388957,8.85111491 117.120972,8.31848145 C117.852987,7.78584798 118.88265,7.51953125 120.209961,7.51953125 L121.748047,7.51953125 L121.748047,6.79321289 C121.748047,6.24064128 121.582845,5.8005778 121.252441,5.47302246 C120.922038,5.14546712 120.434977,4.98168945 119.79126,4.98168945 C119.227295,4.98168945 118.754476,5.12410482 118.372803,5.40893555 C117.99113,5.69376628 117.800293,6.03841146 117.800293,6.44287109 L116.210938,6.44287109 C116.210938,5.98144531 116.374715,5.53568522 116.702271,5.10559082 C117.029826,4.67549642 117.474162,4.3351237 118.035278,4.08447266 C118.596395,3.83382161 119.213053,3.70849609 119.885254,3.70849609 C120.950521,3.70849609 121.785075,3.97481283 122.388916,4.50744629 C122.992757,5.04007975 123.306071,5.77351888 123.328857,6.70776367 L123.328857,10.9631348 C123.328857,11.8119303 123.437093,12.4869792 123.653564,12.9882812 L123.653564,13.125 L121.99585,13.125 Z M119.372559,11.920166 C119.868164,11.920166 120.338135,11.7919922 120.782471,11.5356445 C121.226807,11.2792969 121.548665,10.9460449 121.748047,10.5358887 L121.748047,8.63891602 L120.509033,8.63891602 C118.572184,8.63891602 117.60376,9.20572917 117.60376,10.3393555 C117.60376,10.8349609 117.768962,11.2223307 118.099365,11.5014648 C118.429769,11.780599 118.854167,11.920166 119.372559,11.920166 Z M120.83374,0 L122.747803,0 L120.457764,2.51220703 L119.18457,2.51220703 L120.83374,0 Z" id="Shape"></path>
                    <path d="M131.634521,3.87939453 L131.685791,5.04150391 C132.392171,4.15283203 133.315023,3.70849609 134.454346,3.70849609 C136.408285,3.70849609 137.393799,4.81079102 137.410889,7.01538086 L137.410889,13.125 L135.830078,13.125 L135.830078,7.00683594 C135.824382,6.34033203 135.671997,5.84757487 135.372925,5.52856445 C135.073853,5.20955404 134.608154,5.05004883 133.97583,5.05004883 C133.463135,5.05004883 133.013102,5.18676758 132.625732,5.46020508 C132.238363,5.73364258 131.936442,6.0925293 131.719971,6.53686523 L131.719971,13.125 L130.13916,13.125 L130.13916,3.87939453 L131.634521,3.87939453 Z" id="Path"></path>
                    <path d="M145.50293,13.125 C145.411784,12.9427083 145.337728,12.6180013 145.280762,12.1508789 C144.545898,12.9142253 143.66862,13.2958984 142.648926,13.2958984 C141.737467,13.2958984 140.989787,13.0381266 140.405884,12.522583 C139.821981,12.0070394 139.530029,11.3533529 139.530029,10.5615234 C139.530029,9.59879557 139.896037,8.85111491 140.628052,8.31848145 C141.360067,7.78584798 142.38973,7.51953125 143.717041,7.51953125 L145.255127,7.51953125 L145.255127,6.79321289 C145.255127,6.24064128 145.089925,5.8005778 144.759521,5.47302246 C144.429118,5.14546712 143.942057,4.98168945 143.29834,4.98168945 C142.734375,4.98168945 142.261556,5.12410482 141.879883,5.40893555 C141.49821,5.69376628 141.307373,6.03841146 141.307373,6.44287109 L139.718018,6.44287109 C139.718018,5.98144531 139.881795,5.53568522 140.209351,5.10559082 C140.536906,4.67549642 140.981242,4.3351237 141.542358,4.08447266 C142.103475,3.83382161 142.720133,3.70849609 143.392334,3.70849609 C144.457601,3.70849609 145.292155,3.97481283 145.895996,4.50744629 C146.499837,5.04007975 146.813151,5.77351888 146.835938,6.70776367 L146.835938,10.9631348 C146.835938,11.8119303 146.944173,12.4869792 147.160645,12.9882812 L147.160645,13.125 L145.50293,13.125 Z M142.879639,11.920166 C143.375244,11.920166 143.845215,11.7919922 144.289551,11.5356445 C144.733887,11.2792969 145.055745,10.9460449 145.255127,10.5358887 L145.255127,8.63891602 L144.016113,8.63891602 C142.079264,8.63891602 141.11084,9.20572917 141.11084,10.3393555 C141.11084,10.8349609 141.276042,11.2223307 141.606445,11.5014648 C141.936849,11.780599 142.361247,11.920166 142.879639,11.920166 Z" id="Shape"></path>
                    <path d="M155.791016,1.640625 L155.791016,3.87939453 L157.51709,3.87939453 L157.51709,5.10131836 L155.791016,5.10131836 L155.791016,10.8349609 C155.791016,11.2052409 155.86792,11.4829508 156.021729,11.6680908 C156.175537,11.8532308 156.437581,11.9458008 156.807861,11.9458008 C156.990153,11.9458008 157.240804,11.9116211 157.559814,11.8432617 L157.559814,13.125 C157.143962,13.2389323 156.739502,13.2958984 156.346436,13.2958984 C155.640055,13.2958984 155.107422,13.0822754 154.748535,12.6550293 C154.389648,12.2277832 154.210205,11.6210938 154.210205,10.8349609 L154.210205,5.10131836 L152.526855,5.10131836 L152.526855,3.87939453 L154.210205,3.87939453 L154.210205,1.640625 L155.791016,1.640625 Z" id="Path"></path>
                    <path d="M163.831787,5.29785156 C163.592529,5.25797526 163.333333,5.23803711 163.054199,5.23803711 C162.017415,5.23803711 161.313883,5.67952474 160.943604,6.5625 L160.943604,13.125 L159.362793,13.125 L159.362793,3.87939453 L160.900879,3.87939453 L160.926514,4.94750977 C161.444906,4.12150065 162.179769,3.70849609 163.131104,3.70849609 C163.438721,3.70849609 163.672282,3.7483724 163.831787,3.828125 L163.831787,5.29785156 Z" id="Path"></path>
                    <path d="M166.865234,4.9987793 C167.565918,4.13859049 168.477376,3.70849609 169.599609,3.70849609 C171.553548,3.70849609 172.539062,4.81079102 172.556152,7.01538086 L172.556152,13.125 L170.975342,13.125 L170.975342,7.00683594 C170.969645,6.34033203 170.817261,5.84757487 170.518188,5.52856445 C170.219116,5.20955404 169.753418,5.05004883 169.121094,5.05004883 C168.608398,5.05004883 168.158366,5.18676758 167.770996,5.46020508 C167.383626,5.73364258 167.081706,6.0925293 166.865234,6.53686523 L166.865234,13.125 L165.284424,13.125 L165.284424,0 L166.865234,0 L166.865234,4.9987793 Z" id="Path"></path>
                    <path d="M180.631104,12.2106934 C180.015869,12.9341634 179.112956,13.2958984 177.922363,13.2958984 C176.936849,13.2958984 176.18632,13.0096436 175.670776,12.4371338 C175.155233,11.864624 174.894613,11.0172526 174.888916,9.89501953 L174.888916,3.87939453 L176.469727,3.87939453 L176.469727,9.85229492 C176.469727,11.2536621 177.039388,11.9543457 178.178711,11.9543457 C179.386393,11.9543457 180.189616,11.5043132 180.588379,10.604248 L180.588379,3.87939453 L182.169189,3.87939453 L182.169189,13.125 L180.665283,13.125 L180.631104,12.2106934 Z" id="Path"></path>
                </g>
                <g id="DNNT">
                    <path d="M0,49.765625 L0,0 L16.0302734,0 C20.4280599,0 24.3815104,0.996907552 27.890625,2.99072266 C31.3997396,4.98453776 34.1398112,7.79866536 36.1108398,11.4331055 C38.0818685,15.0675456 39.078776,19.140625 39.1015625,23.6523438 L39.1015625,25.9423828 C39.1015625,30.4996745 38.1388346,34.5841471 36.2133789,38.1958008 C34.2879232,41.8074544 31.5763346,44.6329753 28.0786133,46.6723633 C24.5808919,48.7117513 20.6787109,49.7428385 16.3720703,49.765625 L0,49.765625 Z M11.9970703,9.26269531 L11.9970703,40.5371094 L16.1669922,40.5371094 C19.6077474,40.5371094 22.2509766,39.3123372 24.0966797,36.862793 C25.9423828,34.4132487 26.8652344,30.773112 26.8652344,25.9423828 L26.8652344,23.7890625 C26.8652344,18.9811198 25.9423828,15.3580729 24.0966797,12.9199219 C22.2509766,10.4817708 19.5621745,9.26269531 16.0302734,9.26269531 L11.9970703,9.26269531 Z" id="Shape" fill="#1A8BA6"></path>
                    <polygon id="Path" fill="#706F6F" points="86.8164062 49.765625 74.8876953 49.765625 57.2509766 18.7988281 57.2509766 49.765625 45.2539062 49.765625 45.2539062 0 57.2509766 0 74.8535156 30.9667969 74.8535156 0 86.8164062 0"></polygon>
                    <polygon id="Path" fill="#148CA8" points="135.966797 49.765625 124.038086 49.765625 106.401367 18.7988281 106.401367 49.765625 94.4042969 49.765625 94.4042969 0 106.401367 0 124.003906 30.9667969 124.003906 0 135.966797 0"></polygon>
                    <polygon id="Path" fill="#148CA8" points="182.62207 9.26269531 167.685547 9.26269531 167.685547 49.765625 155.688477 49.765625 155.688477 9.26269531 141.025391 9.26269531 141.025391 0 182.62207 0"></polygon>
                </g>
            </g>
        </g>
    </g>
</svg>