<?xml version="1.0" encoding="UTF-8"?><svg id="Vrstva_2" xmlns="http://www.w3.org/2000/svg" viewBox="0 0 81.51 30"><defs><style>.cls-1{fill:#1a8ba6;}.cls-2{fill:#706f6f;}</style></defs><g id="Vrstva_1-2"><g id="Vrstva_2-2"><g id="texty"><g><path class="cls-2" d="M33.24,2.71c.04,.67-.2,1.33-.67,1.82-.52,.45-1.2,.68-1.89,.64h-1.33V.34h1.49c.65-.04,1.3,.18,1.78,.62,.44,.47,.67,1.11,.62,1.75Zm-.83,.03c0-1.15-.54-1.72-1.61-1.72h-.68v3.48h.56c1.16,0,1.73-.58,1.73-1.74v-.02Z"/><path class="cls-2" d="M34.15,1.08v-.08c.12-.15,.25-.32,.4-.51s.24-.35,.31-.48h.89V.07c-.16,.18-.33,.36-.51,.52-.18,.17-.37,.34-.57,.49h-.53Zm.81,4.08h-.78V1.53h.77v3.63Z"/><path class="cls-2" d="M36.84,5.17h-.77V.04h.77V5.17Z"/><path class="cls-2" d="M40.22,5.17l-.16-.51h-.02c-.14,.19-.32,.35-.53,.45-.22,.09-.45,.13-.68,.12-.31,.02-.61-.09-.84-.29-.21-.21-.32-.51-.3-.81-.02-.33,.13-.65,.4-.85,.39-.22,.83-.33,1.27-.31h.62v-.23c.01-.19-.04-.37-.16-.52-.14-.12-.32-.19-.5-.17-.18,0-.36,.03-.54,.08-.17,.05-.33,.12-.49,.19l-.25-.55c.2-.11,.42-.19,.64-.24,.22-.05,.44-.08,.66-.08,.37-.03,.75,.08,1.05,.3,.25,.25,.38,.59,.35,.95v2.45h-.54Zm-1.15-.53c.25,.01,.49-.07,.68-.23,.18-.17,.27-.41,.25-.66v-.32l-.47,.02c-.28-.01-.56,.05-.81,.18-.17,.11-.26,.3-.25,.5,0,.14,.04,.28,.15,.37,.13,.09,.29,.14,.44,.12v.02Z"/><path class="cls-2" d="M46.79,5.17h-.78V2.92c.02-.22-.04-.44-.17-.62-.14-.15-.33-.23-.54-.21-.27-.02-.54,.08-.72,.29-.18,.29-.26,.63-.23,.97v1.82h-.77V1.55h.6l.11,.48h.04c.11-.18,.27-.32,.47-.4,.21-.1,.44-.15,.67-.14,.87,0,1.31,.44,1.31,1.33v2.36Z"/><path class="cls-2" d="M49.45,5.22c-.49,.03-.97-.15-1.33-.5-.34-.37-.51-.86-.48-1.36-.03-.5,.13-1,.44-1.4,.31-.34,.75-.53,1.21-.51,.42-.02,.84,.14,1.14,.44,.29,.33,.43,.77,.4,1.21v.4h-2.42c0,.3,.09,.58,.29,.81,.2,.2,.48,.3,.76,.29,.2,0,.4-.02,.6-.06,.22-.03,.43-.09,.63-.17v.63c-.18,.09-.37,.15-.57,.19-.22,.04-.45,.05-.67,.04Zm-.14-3.18c-.22-.01-.44,.07-.59,.23-.16,.19-.26,.43-.27,.68h1.65c.01-.25-.06-.49-.21-.68-.15-.16-.36-.24-.58-.23Z"/><path class="cls-2" d="M52.97,5.22c-.41,.02-.81-.16-1.06-.49-.28-.41-.41-.89-.38-1.38-.03-.5,.1-.99,.38-1.4,.25-.33,.65-.51,1.07-.5,.43-.02,.84,.18,1.09,.53h.04c-.03-.2-.05-.41-.06-.62V.04h.77V5.17h-.6l-.13-.48h-.04c-.25,.35-.65,.55-1.08,.52Zm.21-.62c.26,.02,.52-.07,.69-.27,.17-.26,.25-.56,.23-.87v-.11c.03-.34-.05-.68-.23-.97-.17-.2-.43-.31-.7-.29-.25-.01-.49,.12-.63,.33-.17,.28-.25,.61-.23,.94-.02,.32,.05,.64,.21,.92,.14,.22,.39,.34,.65,.32Z"/><path class="cls-2" d="M59.15,3.33c.03,.5-.13,1-.46,1.39-.33,.34-.8,.53-1.27,.5-.31,0-.63-.07-.9-.23-.26-.15-.47-.39-.6-.66-.15-.31-.22-.65-.21-1-.03-.5,.13-1,.45-1.38,.33-.34,.8-.52,1.28-.5,.47-.02,.93,.16,1.25,.5,.32,.38,.49,.87,.46,1.37Zm-2.64,0c0,.84,.31,1.26,.93,1.26s.92-.4,.92-1.26-.31-1.24-.93-1.24c-.27-.02-.54,.1-.7,.32-.16,.28-.24,.6-.22,.92Z"/><path class="cls-2" d="M62.49,4.12c.01,.32-.14,.62-.4,.81-.33,.21-.72,.31-1.11,.28-.4,.02-.8-.06-1.17-.22v-.66c.38,.19,.79,.29,1.21,.29,.48,0,.71-.14,.71-.43,0-.08-.02-.17-.08-.23-.08-.08-.16-.14-.26-.19-.16-.09-.33-.16-.5-.22-.31-.1-.6-.27-.85-.49-.15-.17-.23-.4-.22-.63-.01-.29,.13-.57,.37-.73,.31-.18,.66-.27,1.02-.25,.42,0,.83,.09,1.21,.26l-.25,.58c-.31-.14-.65-.22-.99-.24-.4,0-.61,.12-.61,.35,0,.12,.06,.23,.16,.29,.22,.13,.45,.24,.7,.33,.23,.08,.45,.19,.65,.32,.13,.08,.23,.2,.3,.33,.07,.14,.1,.29,.1,.45Z"/><path class="cls-2" d="M64.67,4.6c.19,0,.38-.03,.56-.09v.58c-.11,.04-.22,.07-.33,.09-.13,.02-.27,.04-.4,.04-.73,0-1.1-.38-1.1-1.16v-1.96h-.5v-.34l.53-.28,.26-.77h.48v.81h1.02v.58h-1.04v1.95c0,.15,.04,.29,.14,.4,.1,.1,.23,.15,.37,.15Z"/><path class="cls-2" d="M68.52,5.17l-.1-.49h-.04c-.11,.17-.27,.31-.46,.4-.21,.1-.44,.15-.68,.15-.36,.03-.72-.09-.99-.33-.24-.28-.35-.63-.33-1V1.53h.78V3.76c-.02,.22,.05,.44,.17,.62,.14,.15,.33,.23,.54,.21,.27,.02,.53-.09,.71-.29,.18-.29,.26-.63,.23-.97V1.52h.77v3.63l-.61,.02Z"/><path class="cls-2" d="M72.08,5.22c-.42,.02-.82-.16-1.07-.5h-.04c.03,.31,.04,.49,.04,.56v1.5h-.77V1.55h.62c0,.07,.05,.23,.1,.49h.04c.24-.37,.65-.58,1.08-.55,.41-.03,.8,.15,1.06,.47,.28,.41,.41,.89,.38,1.38,.03,.5-.12,.98-.4,1.39-.25,.33-.64,.51-1.05,.5Zm-.19-3.13c-.25-.02-.49,.08-.65,.27-.16,.26-.24,.56-.21,.86v.11c-.02,.33,.05,.67,.21,.96,.17,.21,.42,.32,.69,.3,.25,0,.48-.12,.62-.33,.16-.28,.24-.61,.22-.93,.02-.32-.05-.64-.21-.93-.15-.21-.4-.33-.65-.31Z"/><path class="cls-2" d="M77.62,5.17h-.78V2.92c.02-.22-.04-.44-.17-.62-.14-.15-.33-.23-.54-.21-.27-.02-.54,.09-.72,.29-.18,.29-.25,.63-.23,.97v1.82h-.77V1.55h.6l.11,.48h.04c.11-.18,.28-.32,.47-.4,.21-.1,.44-.15,.67-.14,.88,0,1.31,.44,1.31,1.33v2.36Z"/><path class="cls-2" d="M80.97,5.17l-.15-.51h-.03c-.14,.19-.32,.35-.53,.45-.22,.09-.45,.13-.68,.12-.31,.02-.61-.09-.83-.29-.21-.21-.32-.51-.3-.81-.02-.33,.13-.65,.4-.85,.39-.22,.83-.33,1.27-.31h.63v-.23c.01-.19-.04-.37-.16-.52-.14-.13-.32-.19-.51-.17-.18,0-.36,.03-.54,.08-.17,.05-.33,.12-.49,.19l-.25-.55c.21-.11,.42-.19,.65-.24,.22-.05,.44-.08,.66-.08,.37-.03,.74,.08,1.04,.3,.26,.25,.39,.59,.35,.95v2.45h-.54Zm-1.15-.53c.25,.01,.49-.07,.68-.23,.18-.17,.27-.41,.25-.66v-.32l-.47,.02c-.28-.01-.56,.05-.81,.18-.17,.11-.26,.3-.25,.5,0,.14,.04,.28,.15,.37,.13,.1,.29,.14,.45,.12v.02Zm-.23-3.55v-.08c.12-.15,.25-.32,.4-.51s.23-.35,.31-.48h.9V.08c-.16,.18-.33,.36-.51,.52-.19,.17-.38,.33-.58,.48l-.52,.02Z"/><path class="cls-2" d="M32.45,11.88h-.77v-2.23c.02-.22-.04-.44-.17-.63-.14-.15-.34-.22-.54-.21-.27-.02-.54,.08-.72,.29-.18,.29-.26,.63-.23,.97v1.81h-.77v-3.63h.6l.11,.48h.04c.11-.18,.27-.32,.46-.4,.21-.09,.44-.14,.67-.14,.87,0,1.31,.44,1.31,1.33v2.36Z"/><path class="cls-2" d="M35.79,11.88l-.16-.5h-.02c-.14,.19-.32,.34-.53,.45-.22,.09-.45,.13-.68,.12-.31,.02-.61-.09-.84-.29-.21-.22-.31-.51-.3-.81-.02-.33,.13-.66,.4-.85,.39-.22,.83-.33,1.27-.31l.63-.02v-.19c.01-.19-.05-.38-.17-.52-.14-.12-.32-.18-.5-.17-.18,0-.36,.03-.54,.08-.17,.06-.33,.12-.49,.19l-.25-.55c.2-.1,.42-.18,.64-.23,.22-.05,.44-.08,.66-.08,.37-.03,.75,.08,1.05,.3,.25,.25,.38,.6,.35,.95v2.45h-.54Zm-1.15-.54c.25,.01,.49-.07,.68-.24,.18-.17,.27-.41,.25-.66v-.31h-.47c-.28-.01-.56,.05-.81,.18-.16,.11-.26,.3-.25,.5-.01,.14,.04,.28,.14,.38,.13,.11,.29,.16,.46,.15h0Z"/><path class="cls-2" d="M40.53,11.33c.19,0,.38-.03,.56-.09v.58c-.11,.04-.22,.07-.33,.09-.13,.03-.27,.04-.4,.04-.73,0-1.1-.4-1.1-1.16v-1.96h-.5v-.34l.53-.29,.26-.77h.48v.81h1.04v.58h-1.05v1.95c0,.15,.04,.29,.14,.4,.1,.1,.23,.15,.37,.15Z"/><path class="cls-2" d="M43.66,8.19c.14,0,.27,0,.4,.03l-.07,.72c-.11-.03-.23-.04-.34-.04-.28-.01-.55,.1-.75,.3-.2,.22-.31,.51-.29,.81v1.9h-.78v-3.63h.6l.1,.64h.04c.11-.21,.27-.39,.46-.52,.18-.13,.4-.2,.62-.21Z"/><path class="cls-2" d="M47.91,11.88h-.77v-2.23c.02-.22-.04-.44-.17-.63-.14-.15-.34-.22-.54-.21-.27-.02-.54,.08-.71,.29-.18,.29-.26,.63-.23,.97v1.8h-.77V6.78h.77v1.3c0,.22-.01,.45-.04,.67h.05c.1-.17,.26-.31,.44-.4,.2-.1,.43-.15,.65-.15,.88,0,1.32,.44,1.32,1.33v2.35Z"/><path class="cls-2" d="M51.55,11.88l-.11-.48h-.04c-.11,.18-.27,.32-.46,.4-.21,.1-.45,.15-.68,.15-.36,.03-.71-.1-.98-.34-.24-.27-.35-.63-.33-1v-2.38h.78v2.24c-.02,.22,.04,.45,.17,.63,.14,.15,.33,.23,.53,.21,.27,.02,.54-.09,.72-.29,.18-.29,.26-.63,.23-.97v-1.81h.77v3.63h-.61Z"/><path class="cls-1" d="M4.17,9.2c2.01,0,2.9-1.06,2.9-3.25v-.13c0-2.24-.89-3.2-2.94-3.2h-.74v6.58h.77ZM0,0H4.29c4.19,0,6.32,2.09,6.32,5.76v.13c0,3.68-2.18,5.91-6.33,5.91H0V0Z"/><polygon class="cls-2" points="12.26 0 16.07 0 19.84 6.65 19.84 0 22.8 0 22.8 11.79 19.53 11.79 15.23 4.39 15.23 11.79 12.26 11.79 12.26 0"/><polygon class="cls-1" points="0 18.2 3.81 18.2 7.59 24.85 7.59 18.2 10.54 18.2 10.54 30 7.28 30 2.97 22.6 2.97 30 0 30 0 18.2"/><polygon class="cls-1" points="16.31 20.81 13.26 20.81 13.26 18.2 22.76 18.2 22.76 20.81 19.71 20.81 19.71 30 16.31 30 16.31 20.81"/></g></g></g></g></svg>