<?xml version="1.0" encoding="UTF-8"?>
<svg width="254px" height="106px" viewBox="0 0 254 106" version="1.1" xmlns="http://www.w3.org/2000/svg" xmlns:xlink="http://www.w3.org/1999/xlink">
    <title>object-v3</title>
    <g id="Page-1" stroke="none" stroke-width="1" fill="none" fill-rule="evenodd">
        <g id="logo-dnnt-NEW-outlines" transform="translate(-698.000000, -99.000000)">
            <g id="object-v3" transform="translate(698.759766, 99.234375)">
                <g id="desc" transform="translate(119.017578, 13.265625)" fill="#706F6F" fill-rule="nonzero">
                    <path d="M0.368164062,19.5 L0.368164062,1.015625 L5.5859375,1.015625 C7.19401042,1.015625 8.61588542,1.37109375 9.8515625,2.08203125 C11.0872396,2.79296875 12.0415039,3.80436198 12.7143555,5.11621094 C13.387207,6.4280599 13.7278646,7.93457031 13.7363281,9.63574219 L13.7363281,10.8164062 C13.7363281,12.5598958 13.3999023,14.0875651 12.7270508,15.3994141 C12.0541992,16.711263 11.0935872,17.7184245 9.84521484,18.4208984 C8.59684245,19.1233724 7.14322917,19.4830729 5.484375,19.5 L0.368164062,19.5 Z M2.80566406,3.02148438 L2.80566406,17.5068359 L5.37011719,17.5068359 C7.24902344,17.5068359 8.71110026,16.9228516 9.75634766,15.7548828 C10.8015951,14.5869141 11.3242188,12.9238281 11.3242188,10.765625 L11.3242188,9.68652344 C11.3242188,7.5875651 10.8312174,5.95621745 9.84521484,4.79248047 C8.85921224,3.62874349 7.46061198,3.03841146 5.64941406,3.02148438 L2.80566406,3.02148438 Z" id="Shape"></path>
                    <path d="M19.6015625,19.5 L17.2402344,19.5 L17.2402344,5.76367188 L19.6015625,5.76367188 L19.6015625,19.5 Z M19.6269531,0.0126953125 L22.4707031,0.0126953125 L19.0683594,3.74511719 L17.1767578,3.74511719 L19.6269531,0.0126953125 Z" id="Shape"></path>
                    <polygon id="Path" points="26.0253906 19.5 23.6767578 19.5 23.6767578 0 26.0253906 0"></polygon>
                    <path d="M38.2636719,19.5 C38.1282552,19.2291667 38.0182292,18.7467448 37.9335938,18.0527344 C36.8417969,19.186849 35.5384115,19.7539062 34.0234375,19.7539062 C32.6692708,19.7539062 31.558431,19.370931 30.690918,18.6049805 C29.8234049,17.8390299 29.3896484,16.8678385 29.3896484,15.6914062 C29.3896484,14.2610677 29.933431,13.1502279 31.0209961,12.3588867 C32.1085612,11.5675456 33.6383464,11.171875 35.6103516,11.171875 L37.8955078,11.171875 L37.8955078,10.0927734 C37.8955078,9.2718099 37.6500651,8.6180013 37.1591797,8.13134766 C36.6682943,7.64469401 35.9446615,7.40136719 34.9882812,7.40136719 C34.1503906,7.40136719 33.4479167,7.61295573 32.8808594,8.03613281 C32.3138021,8.4593099 32.0302734,8.97135417 32.0302734,9.57226562 L29.6689453,9.57226562 C29.6689453,8.88671875 29.9122721,8.22444661 30.3989258,7.58544922 C30.8855794,6.94645182 31.5457357,6.44075521 32.3793945,6.06835938 C33.2130534,5.69596354 34.1292318,5.50976562 35.1279297,5.50976562 C36.710612,5.50976562 37.9505208,5.9054362 38.8476562,6.69677734 C39.7447917,7.48811849 40.2102865,8.57779948 40.2441406,9.96582031 L40.2441406,16.2880859 C40.2441406,17.5491536 40.4049479,18.5520833 40.7265625,19.296875 L40.7265625,19.5 L38.2636719,19.5 Z M34.3662109,17.7099609 C35.1025391,17.7099609 35.8007812,17.5195312 36.4609375,17.1386719 C37.1210938,16.7578125 37.5992839,16.2626953 37.8955078,15.6533203 L37.8955078,12.8349609 L36.0546875,12.8349609 C33.1770833,12.8349609 31.7382812,13.6770833 31.7382812,15.3613281 C31.7382812,16.0976562 31.983724,16.6731771 32.4746094,17.0878906 C32.9654948,17.5026042 33.5960286,17.7099609 34.3662109,17.7099609 Z" id="Shape"></path>
                    <path d="M2.22167969,35.7636719 L2.29785156,37.4902344 C3.34733073,36.1699219 4.71842448,35.5097656 6.41113281,35.5097656 C9.3141276,35.5097656 10.7783203,37.1474609 10.8037109,40.4228516 L10.8037109,49.5 L8.45507812,49.5 L8.45507812,40.4101562 C8.44661458,39.4199219 8.22021484,38.6878255 7.77587891,38.2138672 C7.33154297,37.7399089 6.63964844,37.5029297 5.70019531,37.5029297 C4.93847656,37.5029297 4.26985677,37.7060547 3.69433594,38.1123047 C3.1188151,38.5185547 2.6702474,39.0517578 2.34863281,39.7119141 L2.34863281,49.5 L0,49.5 L0,35.7636719 L2.22167969,35.7636719 Z" id="Path"></path>
                    <path d="M20.0458984,49.7539062 C18.1839193,49.7539062 16.6689453,49.1424154 15.5009766,47.9194336 C14.3330078,46.6964518 13.7490234,45.0608724 13.7490234,43.0126953 L13.7490234,42.5810547 C13.7490234,41.2184245 14.0092773,40.0017904 14.5297852,38.9311523 C15.050293,37.8605143 15.7781576,37.0226237 16.7133789,36.4174805 C17.6486003,35.8123372 18.6621094,35.5097656 19.7539062,35.5097656 C21.5397135,35.5097656 22.9277344,36.0979818 23.9179688,37.2744141 C24.9082031,38.4508464 25.4033203,40.1350911 25.4033203,42.3271484 L25.4033203,43.3046875 L16.0976562,43.3046875 C16.1315104,44.6588542 16.527181,45.7527669 17.284668,46.5864258 C18.0421549,47.4200846 19.0048828,47.8369141 20.1728516,47.8369141 C21.0022786,47.8369141 21.7047526,47.6676432 22.2802734,47.3291016 C22.8557943,46.9905599 23.359375,46.5419922 23.7910156,45.9833984 L25.2255859,47.1005859 C24.0745443,48.8694661 22.3479818,49.7539062 20.0458984,49.7539062 Z M19.7539062,37.4394531 C18.8059896,37.4394531 18.0104167,37.7843424 17.3671875,38.4741211 C16.7239583,39.1638997 16.3261719,40.1308594 16.1738281,41.375 L23.0546875,41.375 L23.0546875,41.1972656 C22.9869792,40.0039062 22.6653646,39.0792643 22.0898438,38.4233398 C21.5143229,37.7674154 20.7356771,37.4394531 19.7539062,37.4394531 Z" id="Shape"></path>
                    <path d="M27.5488281,42.5175781 C27.5488281,40.4101562 28.0481771,38.715332 29.046875,37.4331055 C30.0455729,36.1508789 31.3531901,35.5097656 32.9697266,35.5097656 C34.5777995,35.5097656 35.8515625,36.0598958 36.7910156,37.1601562 L36.7910156,30 L39.1396484,30 L39.1396484,49.5 L36.9814453,49.5 L36.8671875,48.0273438 C35.9277344,49.1783854 34.6201172,49.7539062 32.9443359,49.7539062 C31.3531901,49.7539062 30.0561523,49.1022135 29.0532227,47.7988281 C28.050293,46.4954427 27.5488281,44.7942708 27.5488281,42.6953125 L27.5488281,42.5175781 Z M29.8974609,42.7841797 C29.8974609,44.3414714 30.2190755,45.5602214 30.8623047,46.4404297 C31.5055339,47.320638 32.3942057,47.7607422 33.5283203,47.7607422 C35.0179036,47.7607422 36.1054688,47.0921224 36.7910156,45.7548828 L36.7910156,39.4453125 C36.0885417,38.1503906 35.0094401,37.5029297 33.5537109,37.5029297 C32.4026693,37.5029297 31.5055339,37.9472656 30.8623047,38.8359375 C30.2190755,39.7246094 29.8974609,41.0406901 29.8974609,42.7841797 Z" id="Shape"></path>
                    <path d="M42.1611328,42.5048828 C42.1611328,41.1591797 42.4256185,39.9488932 42.9545898,38.8740234 C43.4835612,37.7991536 44.2198893,36.9697266 45.1635742,36.3857422 C46.1072591,35.8017578 47.1842448,35.5097656 48.3945312,35.5097656 C50.264974,35.5097656 51.777832,36.1572266 52.9331055,37.4521484 C54.0883789,38.7470703 54.6660156,40.469401 54.6660156,42.6191406 L54.6660156,42.7841797 C54.6660156,44.1214193 54.4099935,45.3211263 53.8979492,46.3833008 C53.3859049,47.4454753 52.6538086,48.2727865 51.7016602,48.8652344 C50.7495117,49.4576823 49.655599,49.7539062 48.4199219,49.7539062 C46.5579427,49.7539062 45.0493164,49.1064453 43.894043,47.8115234 C42.7387695,46.5166016 42.1611328,44.8027344 42.1611328,42.6699219 L42.1611328,42.5048828 Z M44.5224609,42.7841797 C44.5224609,44.3076172 44.8758138,45.530599 45.5825195,46.453125 C46.2892253,47.375651 47.235026,47.8369141 48.4199219,47.8369141 C49.6132812,47.8369141 50.5611979,47.3693034 51.2636719,46.434082 C51.9661458,45.4988607 52.3173828,44.1891276 52.3173828,42.5048828 C52.3173828,40.9983724 51.9597982,39.7775065 51.2446289,38.8422852 C50.5294596,37.9070638 49.5794271,37.4394531 48.3945312,37.4394531 C47.235026,37.4394531 46.2998047,37.9007161 45.5888672,38.8232422 C44.8779297,39.7457682 44.5224609,41.0660807 44.5224609,42.7841797 Z" id="Shape"></path>
                    <path d="M65.609375,45.8564453 C65.609375,45.2216797 65.3702799,44.7286784 64.8920898,44.3774414 C64.4138997,44.0262044 63.5802409,43.7236328 62.3911133,43.4697266 C61.2019857,43.2158203 60.2583008,42.9111328 59.5600586,42.5556641 C58.8618164,42.2001953 58.3455404,41.7770182 58.0112305,41.2861328 C57.6769206,40.7952474 57.5097656,40.211263 57.5097656,39.5341797 C57.5097656,38.4085286 57.9858398,37.4563802 58.9379883,36.6777344 C59.8901367,35.8990885 61.1067708,35.5097656 62.5878906,35.5097656 C64.1451823,35.5097656 65.4083659,35.9117839 66.3774414,36.7158203 C67.3465169,37.5198568 67.8310547,38.5481771 67.8310547,39.8007812 L65.4697266,39.8007812 C65.4697266,39.1575521 65.1967773,38.6031901 64.6508789,38.1376953 C64.1049805,37.6722005 63.4173177,37.4394531 62.5878906,37.4394531 C61.7330729,37.4394531 61.0644531,37.625651 60.5820312,37.9980469 C60.0996094,38.3704427 59.8583984,38.8570964 59.8583984,39.4580078 C59.8583984,40.0250651 60.0826823,40.452474 60.53125,40.7402344 C60.9798177,41.0279948 61.7902018,41.3030599 62.9624023,41.5654297 C64.1346029,41.8277995 65.0846354,42.1409505 65.8125,42.5048828 C66.5403646,42.8688151 67.0799154,43.3068034 67.4311523,43.8188477 C67.7823893,44.3308919 67.9580078,44.9550781 67.9580078,45.6914062 C67.9580078,46.9186198 67.4671224,47.9025065 66.4853516,48.6430664 C65.5035807,49.3836263 64.2298177,49.7539062 62.6640625,49.7539062 C61.5638021,49.7539062 60.5904948,49.5592448 59.7441406,49.1699219 C58.8977865,48.780599 58.2355143,48.2368164 57.7573242,47.5385742 C57.2791341,46.840332 57.0400391,46.0849609 57.0400391,45.2724609 L59.3886719,45.2724609 C59.4309896,46.0595703 59.7462565,46.6837565 60.3344727,47.1450195 C60.9226888,47.6062826 61.6992188,47.8369141 62.6640625,47.8369141 C63.5527344,47.8369141 64.2657878,47.6570638 64.8032227,47.2973633 C65.3406576,46.9376628 65.609375,46.4573568 65.609375,45.8564453 Z" id="Path"></path>
                    <path d="M74.2041016,32.4375 L74.2041016,35.7636719 L76.7685547,35.7636719 L76.7685547,37.5791016 L74.2041016,37.5791016 L74.2041016,46.0976562 C74.2041016,46.6477865 74.3183594,47.0603841 74.546875,47.3354492 C74.7753906,47.6105143 75.1647135,47.7480469 75.7148438,47.7480469 C75.9856771,47.7480469 76.3580729,47.6972656 76.8320312,47.5957031 L76.8320312,49.5 C76.2141927,49.6692708 75.6132812,49.7539062 75.0292969,49.7539062 C73.9798177,49.7539062 73.1884766,49.4365234 72.6552734,48.8017578 C72.1220703,48.1669922 71.8554688,47.265625 71.8554688,46.0976562 L71.8554688,37.5791016 L69.3544922,37.5791016 L69.3544922,35.7636719 L71.8554688,35.7636719 L71.8554688,32.4375 L74.2041016,32.4375 Z" id="Path"></path>
                    <path d="M87.9912109,48.1416016 C87.0771484,49.2164714 85.7356771,49.7539062 83.9667969,49.7539062 C82.5026042,49.7539062 81.3875326,49.3286133 80.621582,48.4780273 C79.8556315,47.6274414 79.4684245,46.3684896 79.4599609,44.7011719 L79.4599609,35.7636719 L81.8085938,35.7636719 L81.8085938,44.6376953 C81.8085938,46.7197266 82.6549479,47.7607422 84.3476562,47.7607422 C86.1419271,47.7607422 87.3352865,47.0921224 87.9277344,45.7548828 L87.9277344,35.7636719 L90.2763672,35.7636719 L90.2763672,49.5 L88.0419922,49.5 L87.9912109,48.1416016 Z" id="Path"></path>
                    <path d="M105.447266,42.7841797 C105.447266,44.8746745 104.969076,46.5589193 104.012695,47.8369141 C103.056315,49.1149089 101.761393,49.7539062 100.12793,49.7539062 C98.460612,49.7539062 97.148763,49.2249349 96.1923828,48.1669922 L96.1923828,54.78125 L93.84375,54.78125 L93.84375,35.7636719 L95.9892578,35.7636719 L96.1035156,37.2871094 C97.0598958,36.1022135 98.3886719,35.5097656 100.089844,35.5097656 C101.740234,35.5097656 103.045736,36.1318359 104.006348,37.3759766 C104.96696,38.6201172 105.447266,40.3509115 105.447266,42.5683594 L105.447266,42.7841797 Z M103.098633,42.5175781 C103.098633,40.96875 102.768555,39.7457682 102.108398,38.8486328 C101.448242,37.9514974 100.542643,37.5029297 99.3916016,37.5029297 C97.9697266,37.5029297 96.9033203,38.1334635 96.1923828,39.3945312 L96.1923828,45.9580078 C96.8948568,47.210612 97.9697266,47.8369141 99.4169922,47.8369141 C100.542643,47.8369141 101.437663,47.3904622 102.102051,46.4975586 C102.766439,45.6046549 103.098633,44.2779948 103.098633,42.5175781 Z" id="Shape"></path>
                    <path d="M110.652344,35.7636719 L110.728516,37.4902344 C111.777995,36.1699219 113.149089,35.5097656 114.841797,35.5097656 C117.744792,35.5097656 119.208984,37.1474609 119.234375,40.4228516 L119.234375,49.5 L116.885742,49.5 L116.885742,40.4101562 C116.877279,39.4199219 116.650879,38.6878255 116.206543,38.2138672 C115.762207,37.7399089 115.070312,37.5029297 114.130859,37.5029297 C113.369141,37.5029297 112.700521,37.7060547 112.125,38.1123047 C111.549479,38.5185547 111.100911,39.0517578 110.779297,39.7119141 L110.779297,49.5 L108.430664,49.5 L108.430664,35.7636719 L110.652344,35.7636719 Z" id="Path"></path>
                    <path d="M131.256836,49.5 C131.121419,49.2291667 131.011393,48.7467448 130.926758,48.0527344 C129.834961,49.186849 128.531576,49.7539062 127.016602,49.7539062 C125.662435,49.7539062 124.551595,49.370931 123.684082,48.6049805 C122.816569,47.8390299 122.382812,46.8678385 122.382812,45.6914062 C122.382812,44.2610677 122.926595,43.1502279 124.01416,42.3588867 C125.101725,41.5675456 126.63151,41.171875 128.603516,41.171875 L130.888672,41.171875 L130.888672,40.0927734 C130.888672,39.2718099 130.643229,38.6180013 130.152344,38.1313477 C129.661458,37.644694 128.937826,37.4013672 127.981445,37.4013672 C127.143555,37.4013672 126.441081,37.6129557 125.874023,38.0361328 C125.306966,38.4593099 125.023438,38.9713542 125.023438,39.5722656 L122.662109,39.5722656 C122.662109,38.8867188 122.905436,38.2244466 123.39209,37.5854492 C123.878743,36.9464518 124.5389,36.4407552 125.372559,36.0683594 C126.206217,35.6959635 127.122396,35.5097656 128.121094,35.5097656 C129.703776,35.5097656 130.943685,35.9054362 131.84082,36.6967773 C132.737956,37.4881185 133.203451,38.5777995 133.237305,39.9658203 L133.237305,46.2880859 C133.237305,47.5491536 133.398112,48.5520833 133.719727,49.296875 L133.719727,49.5 L131.256836,49.5 Z M127.359375,47.7099609 C128.095703,47.7099609 128.793945,47.5195312 129.454102,47.1386719 C130.114258,46.7578125 130.592448,46.2626953 130.888672,45.6533203 L130.888672,42.8349609 L129.047852,42.8349609 C126.170247,42.8349609 124.731445,43.6770833 124.731445,45.3613281 C124.731445,46.0976562 124.976888,46.6731771 125.467773,47.0878906 C125.958659,47.5026042 126.589193,47.7099609 127.359375,47.7099609 Z M129.530273,30 L132.374023,30 L128.97168,33.7324219 L127.080078,33.7324219 L129.530273,30 Z" id="Shape"></path>
                    <path d="M2.22167969,65.7636719 L2.29785156,67.4902344 C3.34733073,66.1699219 4.71842448,65.5097656 6.41113281,65.5097656 C9.3141276,65.5097656 10.7783203,67.1474609 10.8037109,70.4228516 L10.8037109,79.5 L8.45507812,79.5 L8.45507812,70.4101562 C8.44661458,69.4199219 8.22021484,68.6878255 7.77587891,68.2138672 C7.33154297,67.7399089 6.63964844,67.5029297 5.70019531,67.5029297 C4.93847656,67.5029297 4.26985677,67.7060547 3.69433594,68.1123047 C3.1188151,68.5185547 2.6702474,69.0517578 2.34863281,69.7119141 L2.34863281,79.5 L0,79.5 L0,65.7636719 L2.22167969,65.7636719 Z" id="Path"></path>
                    <path d="M22.8261719,79.5 C22.6907552,79.2291667 22.5807292,78.7467448 22.4960938,78.0527344 C21.4042969,79.186849 20.1009115,79.7539062 18.5859375,79.7539062 C17.2317708,79.7539062 16.120931,79.370931 15.253418,78.6049805 C14.3859049,77.8390299 13.9521484,76.8678385 13.9521484,75.6914062 C13.9521484,74.2610677 14.495931,73.1502279 15.5834961,72.3588867 C16.6710612,71.5675456 18.2008464,71.171875 20.1728516,71.171875 L22.4580078,71.171875 L22.4580078,70.0927734 C22.4580078,69.2718099 22.2125651,68.6180013 21.7216797,68.1313477 C21.2307943,67.644694 20.5071615,67.4013672 19.5507812,67.4013672 C18.7128906,67.4013672 18.0104167,67.6129557 17.4433594,68.0361328 C16.8763021,68.4593099 16.5927734,68.9713542 16.5927734,69.5722656 L14.2314453,69.5722656 C14.2314453,68.8867188 14.4747721,68.2244466 14.9614258,67.5854492 C15.4480794,66.9464518 16.1082357,66.4407552 16.9418945,66.0683594 C17.7755534,65.6959635 18.6917318,65.5097656 19.6904297,65.5097656 C21.273112,65.5097656 22.5130208,65.9054362 23.4101562,66.6967773 C24.3072917,67.4881185 24.7727865,68.5777995 24.8066406,69.9658203 L24.8066406,76.2880859 C24.8066406,77.5491536 24.9674479,78.5520833 25.2890625,79.296875 L25.2890625,79.5 L22.8261719,79.5 Z M18.9287109,77.7099609 C19.6650391,77.7099609 20.3632812,77.5195312 21.0234375,77.1386719 C21.6835938,76.7578125 22.1617839,76.2626953 22.4580078,75.6533203 L22.4580078,72.8349609 L20.6171875,72.8349609 C17.7395833,72.8349609 16.3007812,73.6770833 16.3007812,75.3613281 C16.3007812,76.0976562 16.546224,76.6731771 17.0371094,77.0878906 C17.5279948,77.5026042 18.1585286,77.7099609 18.9287109,77.7099609 Z" id="Shape"></path>
                    <path d="M38.1113281,62.4375 L38.1113281,65.7636719 L40.6757812,65.7636719 L40.6757812,67.5791016 L38.1113281,67.5791016 L38.1113281,76.0976562 C38.1113281,76.6477865 38.2255859,77.0603841 38.4541016,77.3354492 C38.6826172,77.6105143 39.0719401,77.7480469 39.6220703,77.7480469 C39.8929036,77.7480469 40.2652995,77.6972656 40.7392578,77.5957031 L40.7392578,79.5 C40.1214193,79.6692708 39.5205078,79.7539062 38.9365234,79.7539062 C37.8870443,79.7539062 37.0957031,79.4365234 36.5625,78.8017578 C36.0292969,78.1669922 35.7626953,77.265625 35.7626953,76.0976562 L35.7626953,67.5791016 L33.2617188,67.5791016 L33.2617188,65.7636719 L35.7626953,65.7636719 L35.7626953,62.4375 L38.1113281,62.4375 Z" id="Path"></path>
                    <path d="M50.0576172,67.8710938 C49.7021484,67.811849 49.3170573,67.7822266 48.9023438,67.7822266 C47.3619792,67.7822266 46.3167318,68.438151 45.7666016,69.75 L45.7666016,79.5 L43.4179688,79.5 L43.4179688,65.7636719 L45.703125,65.7636719 L45.7412109,67.3505859 C46.5113932,66.1233724 47.6031901,65.5097656 49.0166016,65.5097656 C49.4736328,65.5097656 49.820638,65.5690104 50.0576172,65.6875 L50.0576172,67.8710938 Z" id="Path"></path>
                    <path d="M54.5644531,67.4267578 C55.6054688,66.148763 56.9596354,65.5097656 58.6269531,65.5097656 C61.5299479,65.5097656 62.9941406,67.1474609 63.0195312,70.4228516 L63.0195312,79.5 L60.6708984,79.5 L60.6708984,70.4101562 C60.6624349,69.4199219 60.4360352,68.6878255 59.9916992,68.2138672 C59.5473633,67.7399089 58.8554688,67.5029297 57.9160156,67.5029297 C57.1542969,67.5029297 56.4856771,67.7060547 55.9101562,68.1123047 C55.3346354,68.5185547 54.8860677,69.0517578 54.5644531,69.7119141 L54.5644531,79.5 L52.2158203,79.5 L52.2158203,60 L54.5644531,60 L54.5644531,67.4267578 Z" id="Path"></path>
                    <path d="M75.0166016,78.1416016 C74.1025391,79.2164714 72.7610677,79.7539062 70.9921875,79.7539062 C69.5279948,79.7539062 68.4129232,79.3286133 67.6469727,78.4780273 C66.8810221,77.6274414 66.4938151,76.3684896 66.4853516,74.7011719 L66.4853516,65.7636719 L68.8339844,65.7636719 L68.8339844,74.6376953 C68.8339844,76.7197266 69.6803385,77.7607422 71.3730469,77.7607422 C73.1673177,77.7607422 74.3606771,77.0921224 74.953125,75.7548828 L74.953125,65.7636719 L77.3017578,65.7636719 L77.3017578,79.5 L75.0673828,79.5 L75.0166016,78.1416016 Z" id="Path"></path>
                </g>
                <line x1="103.740234" y1="0.265625" x2="103.740234" y2="105.265625" id="Line" stroke="#706F6F" stroke-linecap="square"></line>
                <g id="logo" fill-rule="nonzero">
                    <g id="NT" transform="translate(0.000000, 56.000000)" fill="#1A8BA6">
                        <polygon id="Path" points="41.5625 49.765625 29.6337891 49.765625 11.9970703 18.7988281 11.9970703 49.765625 0 49.765625 0 0 11.9970703 0 29.5996094 30.9667969 29.5996094 0 41.5625 0"></polygon>
                        <polygon id="Path" points="88.2177734 9.26269531 73.28125 9.26269531 73.28125 49.765625 61.2841797 49.765625 61.2841797 9.26269531 46.6210938 9.26269531 46.6210938 0 88.2177734 0"></polygon>
                    </g>
                    <g id="DN">
                        <path d="M0,49.765625 L0,0 L16.0302734,0 C20.4280599,0 24.3815104,0.996907552 27.890625,2.99072266 C31.3997396,4.98453776 34.1398112,7.79866536 36.1108398,11.4331055 C38.0818685,15.0675456 39.078776,19.140625 39.1015625,23.6523438 L39.1015625,25.9423828 C39.1015625,30.4996745 38.1388346,34.5841471 36.2133789,38.1958008 C34.2879232,41.8074544 31.5763346,44.6329753 28.0786133,46.6723633 C24.5808919,48.7117513 20.6787109,49.7428385 16.3720703,49.765625 L0,49.765625 Z M11.9970703,9.26269531 L11.9970703,40.5371094 L16.1669922,40.5371094 C19.6077474,40.5371094 22.2509766,39.3123372 24.0966797,36.862793 C25.9423828,34.4132487 26.8652344,30.773112 26.8652344,25.9423828 L26.8652344,23.7890625 C26.8652344,18.9811198 25.9423828,15.3580729 24.0966797,12.9199219 C22.2509766,10.4817708 19.5621745,9.26269531 16.0302734,9.26269531 L11.9970703,9.26269531 Z" id="Shape" fill="#1A8BA6"></path>
                        <polygon id="Path" fill="#706F6F" points="86.8164062 49.765625 74.8876953 49.765625 57.2509766 18.7988281 57.2509766 49.765625 45.2539062 49.765625 45.2539062 0 57.2509766 0 74.8535156 30.9667969 74.8535156 0 86.8164062 0"></polygon>
                    </g>
                </g>
            </g>
        </g>
    </g>
</svg>