<?xml version="1.0" encoding="UTF-8"?>
<svg width="196px" height="107px" viewBox="0 0 196 107" version="1.1" xmlns="http://www.w3.org/2000/svg" xmlns:xlink="http://www.w3.org/1999/xlink">
    <title>object-v2</title>
    <g id="Page-1" stroke="none" stroke-width="1" fill="none" fill-rule="evenodd">
        <g id="logo-dnnt-NEW-outlines" transform="translate(-421.000000, -98.000000)" fill-rule="nonzero">
            <g id="object-v2" transform="translate(421.759766, 98.750000)">
                <g id="desc" transform="translate(96.539062, 0.000000)" fill="#706F6F">
                    <path d="M0.269042969,14.25 L0.269042969,0.7421875 L4.08203125,0.7421875 C5.25716146,0.7421875 6.29622396,1.00195312 7.19921875,1.52148438 C8.10221354,2.04101562 8.79956055,2.78011068 9.29125977,3.73876953 C9.78295898,4.69742839 10.031901,5.79833984 10.0380859,7.04150391 L10.0380859,7.90429688 C10.0380859,9.17838542 9.79223633,10.2947591 9.30053711,11.253418 C8.80883789,12.2120768 8.10685221,12.9480794 7.19458008,13.4614258 C6.28230794,13.9747721 5.22005208,14.2376302 4.0078125,14.25 L0.269042969,14.25 Z M2.05029297,2.20800781 L2.05029297,12.793457 L3.92431641,12.793457 C5.29736328,12.793457 6.36580404,12.3666992 7.12963867,11.5131836 C7.89347331,10.659668 8.27539062,9.44433594 8.27539062,7.8671875 L8.27539062,7.07861328 C8.27539062,5.54475911 7.91512044,4.35262044 7.19458008,3.50219727 C6.47403971,2.65177409 5.45198568,2.2203776 4.12841797,2.20800781 L2.05029297,2.20800781 Z" id="Shape"></path>
                    <path d="M14.3242188,14.25 L12.5986328,14.25 L12.5986328,4.21191406 L14.3242188,4.21191406 L14.3242188,14.25 Z M14.3427734,0.00927734375 L16.4208984,0.00927734375 L13.9345703,2.73681641 L12.5522461,2.73681641 L14.3427734,0.00927734375 Z" id="Shape"></path>
                    <polygon id="Path" points="19.0185547 14.25 17.3022461 14.25 17.3022461 0 19.0185547 0"></polygon>
                    <path d="M27.9619141,14.25 C27.8629557,14.0520833 27.7825521,13.6995443 27.7207031,13.1923828 C26.9228516,14.0211589 25.9703776,14.4355469 24.8632812,14.4355469 C23.8736979,14.4355469 23.0619303,14.1556803 22.4279785,13.5959473 C21.7940267,13.0362142 21.4770508,12.3264974 21.4770508,11.4667969 C21.4770508,10.4215495 21.8744303,9.6097819 22.6691895,9.03149414 C23.4639486,8.45320638 24.5818685,8.1640625 26.0229492,8.1640625 L27.6928711,8.1640625 L27.6928711,7.37548828 C27.6928711,6.77555339 27.5135091,6.29777018 27.1547852,5.94213867 C26.7960612,5.58650716 26.2672526,5.40869141 25.5683594,5.40869141 C24.9560547,5.40869141 24.4427083,5.5633138 24.0283203,5.87255859 C23.6139323,6.18180339 23.4067383,6.55598958 23.4067383,6.99511719 L21.6811523,6.99511719 C21.6811523,6.49414062 21.8589681,6.01017253 22.2145996,5.54321289 C22.5702311,5.07625326 23.052653,4.70670573 23.6618652,4.43457031 C24.2710775,4.1624349 24.9405924,4.02636719 25.6704102,4.02636719 C26.8269857,4.02636719 27.7330729,4.31551107 28.3886719,4.89379883 C29.0442708,5.47208659 29.3844401,6.26839193 29.4091797,7.28271484 L29.4091797,11.902832 C29.4091797,12.8243815 29.5266927,13.5572917 29.7617188,14.1015625 L29.7617188,14.25 L27.9619141,14.25 Z M25.1137695,12.9418945 C25.6518555,12.9418945 26.1621094,12.8027344 26.6445312,12.5244141 C27.1269531,12.2460938 27.4763997,11.8842773 27.6928711,11.4389648 L27.6928711,9.37939453 L26.3476562,9.37939453 C24.2447917,9.37939453 23.1933594,9.99479167 23.1933594,11.2255859 C23.1933594,11.7636719 23.3727214,12.1842448 23.7314453,12.4873047 C24.0901693,12.7903646 24.550944,12.9418945 25.1137695,12.9418945 Z" id="Shape"></path>
                    <path d="M1.62353516,22.2119141 L1.67919922,23.4736328 C2.4461263,22.5087891 3.44807943,22.0263672 4.68505859,22.0263672 C6.80647786,22.0263672 7.87646484,23.2231445 7.89501953,25.6166992 L7.89501953,32.25 L6.17871094,32.25 L6.17871094,25.6074219 C6.17252604,24.8837891 6.00708008,24.3487956 5.68237305,24.0024414 C5.35766602,23.6560872 4.85205078,23.4829102 4.16552734,23.4829102 C3.60888672,23.4829102 3.12027995,23.6313477 2.69970703,23.9282227 C2.27913411,24.2250977 1.95133464,24.6147461 1.71630859,25.097168 L1.71630859,32.25 L0,32.25 L0,22.2119141 L1.62353516,22.2119141 Z" id="Path"></path>
                    <path d="M14.6489258,32.4355469 C13.2882487,32.4355469 12.1811523,31.9886882 11.3276367,31.0949707 C10.4741211,30.2012533 10.0473633,29.0060221 10.0473633,27.5092773 L10.0473633,27.1938477 C10.0473633,26.1980794 10.2375488,25.3090007 10.6179199,24.5266113 C10.998291,23.744222 11.5301921,23.1319173 12.213623,22.6896973 C12.897054,22.2474772 13.6376953,22.0263672 14.4355469,22.0263672 C15.7405599,22.0263672 16.7548828,22.4562174 17.4785156,23.315918 C18.2021484,24.1756185 18.5639648,25.4064128 18.5639648,27.0083008 L18.5639648,27.7226562 L11.7636719,27.7226562 C11.7884115,28.7122396 12.0775553,29.5116374 12.6311035,30.1208496 C13.1846517,30.7300618 13.8881836,31.034668 14.7416992,31.034668 C15.347819,31.034668 15.8611654,30.9109701 16.2817383,30.6635742 C16.7023112,30.4161784 17.0703125,30.0883789 17.3857422,29.6801758 L18.434082,30.496582 C17.5929362,31.7892253 16.3312174,32.4355469 14.6489258,32.4355469 Z M14.4355469,23.4365234 C13.7428385,23.4365234 13.1614583,23.6885579 12.6914062,24.192627 C12.2213542,24.696696 11.9306641,25.4033203 11.8193359,26.3125 L16.8476562,26.3125 L16.8476562,26.1826172 C16.7981771,25.3105469 16.563151,24.634847 16.1425781,24.1555176 C15.7220052,23.6761882 15.1529948,23.4365234 14.4355469,23.4365234 Z" id="Shape"></path>
                    <path d="M20.1318359,27.1474609 C20.1318359,25.6074219 20.4967448,24.3688965 21.2265625,23.4318848 C21.9563802,22.494873 22.9119466,22.0263672 24.0932617,22.0263672 C25.2683919,22.0263672 26.1992188,22.4283854 26.8857422,23.2324219 L26.8857422,18 L28.6020508,18 L28.6020508,32.25 L27.0249023,32.25 L26.9414062,31.1738281 C26.2548828,32.014974 25.2993164,32.4355469 24.074707,32.4355469 C22.9119466,32.4355469 21.9641113,31.9593099 21.2312012,31.0068359 C20.498291,30.054362 20.1318359,28.8111979 20.1318359,27.2773438 L20.1318359,27.1474609 Z M21.8481445,27.3422852 C21.8481445,28.480306 22.0831706,29.370931 22.5532227,30.0141602 C23.0232747,30.6573893 23.6726888,30.9790039 24.5014648,30.9790039 C25.5900065,30.9790039 26.3847656,30.4903971 26.8857422,29.5131836 L26.8857422,24.9023438 C26.3723958,23.9560547 25.5838216,23.4829102 24.5200195,23.4829102 C23.6788737,23.4829102 23.0232747,23.8076172 22.5532227,24.4570312 C22.0831706,25.1064453 21.8481445,26.0681966 21.8481445,27.3422852 Z" id="Shape"></path>
                    <path d="M30.8100586,27.1381836 C30.8100586,26.1547852 31.0033366,25.2703451 31.3898926,24.4848633 C31.7764486,23.6993815 32.3145345,23.0932617 33.0041504,22.6665039 C33.6937663,22.2397461 34.4807943,22.0263672 35.3652344,22.0263672 C36.7320964,22.0263672 37.8376465,22.4995117 38.6818848,23.4458008 C39.526123,24.3920898 39.9482422,25.6507161 39.9482422,27.2216797 L39.9482422,27.3422852 C39.9482422,28.3194987 39.7611491,29.1962077 39.3869629,29.9724121 C39.0127767,30.7486165 38.4777832,31.3531901 37.7819824,31.7861328 C37.0861816,32.2190755 36.2867839,32.4355469 35.3837891,32.4355469 C34.023112,32.4355469 32.9206543,31.9624023 32.076416,31.0161133 C31.2321777,30.0698242 30.8100586,28.8173828 30.8100586,27.2587891 L30.8100586,27.1381836 Z M32.5356445,27.3422852 C32.5356445,28.4555664 32.7938639,29.3492839 33.3103027,30.0234375 C33.8267415,30.6975911 34.5179036,31.034668 35.3837891,31.034668 C36.2558594,31.034668 36.9485677,30.6929525 37.4619141,30.0095215 C37.9752604,29.3260905 38.2319336,28.3689779 38.2319336,27.1381836 C38.2319336,26.0372721 37.9706217,25.1451009 37.447998,24.4616699 C36.9253743,23.7782389 36.2311198,23.4365234 35.3652344,23.4365234 C34.5179036,23.4365234 33.8344727,23.7736003 33.3149414,24.4477539 C32.7954102,25.1219076 32.5356445,26.0867513 32.5356445,27.3422852 Z" id="Shape"></path>
                    <path d="M47.9453125,29.5874023 C47.9453125,29.1235352 47.7705892,28.763265 47.4211426,28.5065918 C47.071696,28.2499186 46.4624837,28.0288086 45.5935059,27.8432617 C44.724528,27.6577148 44.0349121,27.4350586 43.5246582,27.175293 C43.0144043,26.9155273 42.6371257,26.6062826 42.3928223,26.2475586 C42.1485189,25.8888346 42.0263672,25.4620768 42.0263672,24.9672852 C42.0263672,24.144694 42.3742676,23.4488932 43.0700684,22.8798828 C43.7658691,22.3108724 44.6549479,22.0263672 45.7373047,22.0263672 C46.8753255,22.0263672 47.7984212,22.3201497 48.5065918,22.9077148 C49.2147624,23.4952799 49.5688477,24.2467448 49.5688477,25.1621094 L47.8432617,25.1621094 C47.8432617,24.6920573 47.6437988,24.2869466 47.244873,23.9467773 C46.8459473,23.6066081 46.3434245,23.4365234 45.7373047,23.4365234 C45.1126302,23.4365234 44.6240234,23.5725911 44.2714844,23.8447266 C43.9189453,24.116862 43.7426758,24.4724935 43.7426758,24.9116211 C43.7426758,25.3260091 43.9065755,25.6383464 44.234375,25.8486328 C44.5621745,26.0589193 45.1543783,26.2599284 46.0109863,26.4516602 C46.8675944,26.6433919 47.561849,26.8722331 48.09375,27.1381836 C48.625651,27.4041341 49.0199382,27.7242025 49.2766113,28.0983887 C49.5332845,28.4725749 49.6616211,28.9287109 49.6616211,29.4667969 C49.6616211,30.3636068 49.3028971,31.0826009 48.5854492,31.6237793 C47.8680013,32.1649577 46.9371745,32.4355469 45.7929688,32.4355469 C44.9889323,32.4355469 44.2776693,32.2932943 43.6591797,32.0087891 C43.0406901,31.7242839 42.556722,31.3269043 42.2072754,30.8166504 C41.8578288,30.3063965 41.6831055,29.7543945 41.6831055,29.1606445 L43.3994141,29.1606445 C43.4303385,29.7358398 43.6607259,30.1919759 44.0905762,30.5290527 C44.5204264,30.8661296 45.0878906,31.034668 45.7929688,31.034668 C46.4423828,31.034668 46.9634603,30.9032389 47.3562012,30.6403809 C47.7489421,30.3775228 47.9453125,30.0265299 47.9453125,29.5874023 Z" id="Path"></path>
                    <path d="M54.2260742,19.78125 L54.2260742,22.2119141 L56.1000977,22.2119141 L56.1000977,23.5385742 L54.2260742,23.5385742 L54.2260742,29.7636719 C54.2260742,30.1656901 54.3095703,30.4672038 54.4765625,30.6682129 C54.6435547,30.869222 54.9280599,30.9697266 55.3300781,30.9697266 C55.5279948,30.9697266 55.8001302,30.9326172 56.1464844,30.8583984 L56.1464844,32.25 C55.694987,32.3736979 55.2558594,32.4355469 54.8291016,32.4355469 C54.0621745,32.4355469 53.4838867,32.2036133 53.0942383,31.7397461 C52.7045898,31.2758789 52.5097656,30.6171875 52.5097656,29.7636719 L52.5097656,23.5385742 L50.6821289,23.5385742 L50.6821289,22.2119141 L52.5097656,22.2119141 L52.5097656,19.78125 L54.2260742,19.78125 Z" id="Path"></path>
                    <path d="M64.3012695,31.2573242 C63.6333008,32.042806 62.6529948,32.4355469 61.3603516,32.4355469 C60.2903646,32.4355469 59.4755046,32.1247559 58.9157715,31.5031738 C58.3560384,30.8815918 58.0730794,29.9615885 58.0668945,28.7431641 L58.0668945,22.2119141 L59.7832031,22.2119141 L59.7832031,28.6967773 C59.7832031,30.2182617 60.4016927,30.9790039 61.6386719,30.9790039 C62.9498698,30.9790039 63.8219401,30.4903971 64.2548828,29.5131836 L64.2548828,22.2119141 L65.9711914,22.2119141 L65.9711914,32.25 L64.3383789,32.25 L64.3012695,31.2573242 Z" id="Path"></path>
                    <path d="M77.0576172,27.3422852 C77.0576172,28.8699544 76.7081706,30.1007487 76.0092773,31.034668 C75.3103841,31.9685872 74.3640951,32.4355469 73.1704102,32.4355469 C71.9519857,32.4355469 70.9933268,32.0489909 70.2944336,31.2758789 L70.2944336,36.109375 L68.578125,36.109375 L68.578125,22.2119141 L70.1459961,22.2119141 L70.2294922,23.3251953 C70.9283854,22.4593099 71.8994141,22.0263672 73.1425781,22.0263672 C74.3486328,22.0263672 75.302653,22.480957 76.0046387,23.3901367 C76.7066243,24.2993164 77.0576172,25.5641276 77.0576172,27.1845703 L77.0576172,27.3422852 Z M75.3413086,27.1474609 C75.3413086,26.015625 75.1000977,25.1219076 74.6176758,24.4663086 C74.1352539,23.8107096 73.4734701,23.4829102 72.6323242,23.4829102 C71.5932617,23.4829102 70.8139648,23.9436849 70.2944336,24.8652344 L70.2944336,29.6616211 C70.8077799,30.5769857 71.5932617,31.034668 72.6508789,31.034668 C73.4734701,31.034668 74.1275228,30.7084147 74.6130371,30.0559082 C75.0985514,29.4034017 75.3413086,28.4339193 75.3413086,27.1474609 Z" id="Shape"></path>
                    <path d="M80.8613281,22.2119141 L80.9169922,23.4736328 C81.6839193,22.5087891 82.6858724,22.0263672 83.9228516,22.0263672 C86.0442708,22.0263672 87.1142578,23.2231445 87.1328125,25.6166992 L87.1328125,32.25 L85.4165039,32.25 L85.4165039,25.6074219 C85.410319,24.8837891 85.244873,24.3487956 84.920166,24.0024414 C84.595459,23.6560872 84.0898438,23.4829102 83.4033203,23.4829102 C82.8466797,23.4829102 82.3580729,23.6313477 81.9375,23.9282227 C81.5169271,24.2250977 81.1891276,24.6147461 80.9541016,25.097168 L80.9541016,32.25 L79.237793,32.25 L79.237793,22.2119141 L80.8613281,22.2119141 Z" id="Path"></path>
                    <path d="M95.918457,32.25 C95.8194987,32.0520833 95.7390951,31.6995443 95.6772461,31.1923828 C94.8793945,32.0211589 93.9269206,32.4355469 92.8198242,32.4355469 C91.8302409,32.4355469 91.0184733,32.1556803 90.3845215,31.5959473 C89.7505697,31.0362142 89.4335938,30.3264974 89.4335938,29.4667969 C89.4335938,28.4215495 89.8309733,27.6097819 90.6257324,27.0314941 C91.4204915,26.4532064 92.5384115,26.1640625 93.9794922,26.1640625 L95.6494141,26.1640625 L95.6494141,25.3754883 C95.6494141,24.7755534 95.4700521,24.2977702 95.1113281,23.9421387 C94.7526042,23.5865072 94.2237956,23.4086914 93.5249023,23.4086914 C92.9125977,23.4086914 92.3992513,23.5633138 91.9848633,23.8725586 C91.5704753,24.1818034 91.3632812,24.5559896 91.3632812,24.9951172 L89.6376953,24.9951172 C89.6376953,24.4941406 89.8155111,24.0101725 90.1711426,23.5432129 C90.5267741,23.0762533 91.009196,22.7067057 91.6184082,22.4345703 C92.2276204,22.1624349 92.8971354,22.0263672 93.6269531,22.0263672 C94.7835286,22.0263672 95.6896159,22.3155111 96.3452148,22.8937988 C97.0008138,23.4720866 97.3409831,24.2683919 97.3657227,25.2827148 L97.3657227,29.902832 C97.3657227,30.8243815 97.4832357,31.5572917 97.7182617,32.1015625 L97.7182617,32.25 L95.918457,32.25 Z M93.0703125,30.9418945 C93.6083984,30.9418945 94.1186523,30.8027344 94.6010742,30.5244141 C95.0834961,30.2460938 95.4329427,29.8842773 95.6494141,29.4389648 L95.6494141,27.3793945 L94.3041992,27.3793945 C92.2013346,27.3793945 91.1499023,27.9947917 91.1499023,29.2255859 C91.1499023,29.7636719 91.3292643,30.1842448 91.6879883,30.4873047 C92.0467122,30.7903646 92.507487,30.9418945 93.0703125,30.9418945 Z M94.6567383,18 L96.7348633,18 L94.2485352,20.7275391 L92.8662109,20.7275391 L94.6567383,18 Z" id="Shape"></path>
                    <path d="M1.62353516,40.2119141 L1.67919922,41.4736328 C2.4461263,40.5087891 3.44807943,40.0263672 4.68505859,40.0263672 C6.80647786,40.0263672 7.87646484,41.2231445 7.89501953,43.6166992 L7.89501953,50.25 L6.17871094,50.25 L6.17871094,43.6074219 C6.17252604,42.8837891 6.00708008,42.3487956 5.68237305,42.0024414 C5.35766602,41.6560872 4.85205078,41.4829102 4.16552734,41.4829102 C3.60888672,41.4829102 3.12027995,41.6313477 2.69970703,41.9282227 C2.27913411,42.2250977 1.95133464,42.6147461 1.71630859,43.097168 L1.71630859,50.25 L0,50.25 L0,40.2119141 L1.62353516,40.2119141 Z" id="Path"></path>
                    <path d="M16.6806641,50.25 C16.5817057,50.0520833 16.5013021,49.6995443 16.4394531,49.1923828 C15.6416016,50.0211589 14.6891276,50.4355469 13.5820312,50.4355469 C12.5924479,50.4355469 11.7806803,50.1556803 11.1467285,49.5959473 C10.5127767,49.0362142 10.1958008,48.3264974 10.1958008,47.4667969 C10.1958008,46.4215495 10.5931803,45.6097819 11.3879395,45.0314941 C12.1826986,44.4532064 13.3006185,44.1640625 14.7416992,44.1640625 L16.4116211,44.1640625 L16.4116211,43.3754883 C16.4116211,42.7755534 16.2322591,42.2977702 15.8735352,41.9421387 C15.5148112,41.5865072 14.9860026,41.4086914 14.2871094,41.4086914 C13.6748047,41.4086914 13.1614583,41.5633138 12.7470703,41.8725586 C12.3326823,42.1818034 12.1254883,42.5559896 12.1254883,42.9951172 L10.3999023,42.9951172 C10.3999023,42.4941406 10.5777181,42.0101725 10.9333496,41.5432129 C11.2889811,41.0762533 11.771403,40.7067057 12.3806152,40.4345703 C12.9898275,40.1624349 13.6593424,40.0263672 14.3891602,40.0263672 C15.5457357,40.0263672 16.4518229,40.3155111 17.1074219,40.8937988 C17.7630208,41.4720866 18.1031901,42.2683919 18.1279297,43.2827148 L18.1279297,47.902832 C18.1279297,48.8243815 18.2454427,49.5572917 18.4804688,50.1015625 L18.4804688,50.25 L16.6806641,50.25 Z M13.8325195,48.9418945 C14.3706055,48.9418945 14.8808594,48.8027344 15.3632812,48.5244141 C15.8457031,48.2460938 16.1951497,47.8842773 16.4116211,47.4389648 L16.4116211,45.3793945 L15.0664062,45.3793945 C12.9635417,45.3793945 11.9121094,45.9947917 11.9121094,47.2255859 C11.9121094,47.7636719 12.0914714,48.1842448 12.4501953,48.4873047 C12.8089193,48.7903646 13.269694,48.9418945 13.8325195,48.9418945 Z" id="Shape"></path>
                    <path d="M27.8505859,37.78125 L27.8505859,40.2119141 L29.7246094,40.2119141 L29.7246094,41.5385742 L27.8505859,41.5385742 L27.8505859,47.7636719 C27.8505859,48.1656901 27.934082,48.4672038 28.1010742,48.6682129 C28.2680664,48.869222 28.5525716,48.9697266 28.9545898,48.9697266 C29.1525065,48.9697266 29.4246419,48.9326172 29.7709961,48.8583984 L29.7709961,50.25 C29.3194987,50.3736979 28.8803711,50.4355469 28.4536133,50.4355469 C27.6866862,50.4355469 27.1083984,50.2036133 26.71875,49.7397461 C26.3291016,49.2758789 26.1342773,48.6171875 26.1342773,47.7636719 L26.1342773,41.5385742 L24.3066406,41.5385742 L24.3066406,40.2119141 L26.1342773,40.2119141 L26.1342773,37.78125 L27.8505859,37.78125 Z" id="Path"></path>
                    <path d="M36.5805664,41.7519531 C36.3208008,41.7086589 36.039388,41.6870117 35.7363281,41.6870117 C34.6106771,41.6870117 33.8468424,42.1663411 33.4448242,43.125 L33.4448242,50.25 L31.7285156,50.25 L31.7285156,40.2119141 L33.3984375,40.2119141 L33.4262695,41.371582 C33.9890951,40.4747721 34.7869466,40.0263672 35.8198242,40.0263672 C36.1538086,40.0263672 36.4073893,40.0696615 36.5805664,40.15625 L36.5805664,41.7519531 Z" id="Path"></path>
                    <path d="M39.8740234,41.4272461 C40.6347656,40.4933268 41.624349,40.0263672 42.8427734,40.0263672 C44.9641927,40.0263672 46.0341797,41.2231445 46.0527344,43.6166992 L46.0527344,50.25 L44.3364258,50.25 L44.3364258,43.6074219 C44.3302409,42.8837891 44.1647949,42.3487956 43.8400879,42.0024414 C43.5153809,41.6560872 43.0097656,41.4829102 42.3232422,41.4829102 C41.7666016,41.4829102 41.2779948,41.6313477 40.8574219,41.9282227 C40.436849,42.2250977 40.1090495,42.6147461 39.8740234,43.097168 L39.8740234,50.25 L38.1577148,50.25 L38.1577148,36 L39.8740234,36 L39.8740234,41.4272461 Z" id="Path"></path>
                    <path d="M54.8198242,49.2573242 C54.1518555,50.042806 53.1715495,50.4355469 51.8789062,50.4355469 C50.8089193,50.4355469 49.9940592,50.1247559 49.4343262,49.5031738 C48.8745931,48.8815918 48.5916341,47.9615885 48.5854492,46.7431641 L48.5854492,40.2119141 L50.3017578,40.2119141 L50.3017578,46.6967773 C50.3017578,48.2182617 50.9202474,48.9790039 52.1572266,48.9790039 C53.4684245,48.9790039 54.3404948,48.4903971 54.7734375,47.5131836 L54.7734375,40.2119141 L56.4897461,40.2119141 L56.4897461,50.25 L54.8569336,50.25 L54.8198242,49.2573242 Z" id="Path"></path>
                </g>
                <g id="logo" transform="translate(0.000000, 0.484375)">
                    <g id="NT" transform="translate(0.000000, 56.000000)" fill="#1A8BA6">
                        <polygon id="Path" points="41.5625 49.765625 29.6337891 49.765625 11.9970703 18.7988281 11.9970703 49.765625 0 49.765625 0 0 11.9970703 0 29.5996094 30.9667969 29.5996094 0 41.5625 0"></polygon>
                        <polygon id="Path" points="88.2177734 9.26269531 73.28125 9.26269531 73.28125 49.765625 61.2841797 49.765625 61.2841797 9.26269531 46.6210938 9.26269531 46.6210938 0 88.2177734 0"></polygon>
                    </g>
                    <g id="DN">
                        <path d="M0,49.765625 L0,0 L16.0302734,0 C20.4280599,0 24.3815104,0.996907552 27.890625,2.99072266 C31.3997396,4.98453776 34.1398112,7.79866536 36.1108398,11.4331055 C38.0818685,15.0675456 39.078776,19.140625 39.1015625,23.6523438 L39.1015625,25.9423828 C39.1015625,30.4996745 38.1388346,34.5841471 36.2133789,38.1958008 C34.2879232,41.8074544 31.5763346,44.6329753 28.0786133,46.6723633 C24.5808919,48.7117513 20.6787109,49.7428385 16.3720703,49.765625 L0,49.765625 Z M11.9970703,9.26269531 L11.9970703,40.5371094 L16.1669922,40.5371094 C19.6077474,40.5371094 22.2509766,39.3123372 24.0966797,36.862793 C25.9423828,34.4132487 26.8652344,30.773112 26.8652344,25.9423828 L26.8652344,23.7890625 C26.8652344,18.9811198 25.9423828,15.3580729 24.0966797,12.9199219 C22.2509766,10.4817708 19.5621745,9.26269531 16.0302734,9.26269531 L11.9970703,9.26269531 Z" id="Shape" fill="#1A8BA6"></path>
                        <polygon id="Path" fill="#706F6F" points="86.8164062 49.765625 74.8876953 49.765625 57.2509766 18.7988281 57.2509766 49.765625 45.2539062 49.765625 45.2539062 0 57.2509766 0 74.8535156 30.9667969 74.8535156 0 86.8164062 0"></polygon>
                    </g>
                </g>
            </g>
        </g>
    </g>
</svg>