<?xml version="1.0" encoding="UTF-8"?>
<svg width="315px" height="107px" viewBox="0 0 315 107" version="1.1" xmlns="http://www.w3.org/2000/svg" xmlns:xlink="http://www.w3.org/1999/xlink">
    <title>object-v1</title>
    <g id="Page-1" stroke="none" stroke-width="1" fill="none" fill-rule="evenodd">
        <g id="logo-dnnt-NEW-outlines" transform="translate(-82.000000, -98.000000)" fill-rule="nonzero">
            <g id="object-v1" transform="translate(82.759766, 98.500000)">
                <g id="desc" transform="translate(101.291016, 0.000000)" fill="#706F6F">
                    <path d="M0.424804688,22.5 L0.424804688,1.171875 L6.4453125,1.171875 C8.30078125,1.171875 9.94140625,1.58203125 11.3671875,2.40234375 C12.7929688,3.22265625 13.894043,4.38964844 14.6704102,5.90332031 C15.4467773,7.41699219 15.8398438,9.15527344 15.8496094,11.1181641 L15.8496094,12.4804688 C15.8496094,14.4921875 15.4614258,16.2548828 14.6850586,17.7685547 C13.9086914,19.2822266 12.800293,20.4443359 11.3598633,21.2548828 C9.91943359,22.0654297 8.2421875,22.4804688 6.328125,22.5 L0.424804688,22.5 Z M3.23730469,3.48632812 L3.23730469,20.2001953 L6.19628906,20.2001953 C8.36425781,20.2001953 10.0512695,19.5263672 11.2573242,18.1787109 C12.4633789,16.8310547 13.0664062,14.9121094 13.0664062,12.421875 L13.0664062,11.1767578 C13.0664062,8.75488281 12.4975586,6.87255859 11.3598633,5.52978516 C10.222168,4.18701172 8.60839844,3.50585938 6.51855469,3.48632812 L3.23730469,3.48632812 Z" id="Shape"></path>
                    <path d="M22.6171875,22.5 L19.8925781,22.5 L19.8925781,6.65039062 L22.6171875,6.65039062 L22.6171875,22.5 Z M22.6464844,0.0146484375 L25.9277344,0.0146484375 L22.0019531,4.32128906 L19.8193359,4.32128906 L22.6464844,0.0146484375 Z" id="Shape"></path>
                    <polygon id="Path" points="30.0292969 22.5 27.3193359 22.5 27.3193359 0 30.0292969 0"></polygon>
                    <path d="M44.1503906,22.5 C43.9941406,22.1875 43.8671875,21.6308594 43.7695312,20.8300781 C42.5097656,22.1386719 41.0058594,22.7929688 39.2578125,22.7929688 C37.6953125,22.7929688 36.4135742,22.3510742 35.4125977,21.4672852 C34.4116211,20.5834961 33.9111328,19.4628906 33.9111328,18.1054688 C33.9111328,16.4550781 34.5385742,15.1733398 35.793457,14.2602539 C37.0483398,13.347168 38.8134766,12.890625 41.0888672,12.890625 L43.7255859,12.890625 L43.7255859,11.6455078 C43.7255859,10.6982422 43.4423828,9.94384766 42.8759766,9.38232422 C42.3095703,8.82080078 41.4746094,8.54003906 40.3710938,8.54003906 C39.4042969,8.54003906 38.59375,8.78417969 37.9394531,9.27246094 C37.2851562,9.76074219 36.9580078,10.3515625 36.9580078,11.0449219 L34.2333984,11.0449219 C34.2333984,10.2539062 34.5141602,9.48974609 35.0756836,8.75244141 C35.637207,8.01513672 36.3989258,7.43164062 37.3608398,7.00195312 C38.3227539,6.57226562 39.3798828,6.35742188 40.5322266,6.35742188 C42.3583984,6.35742188 43.7890625,6.81396484 44.8242188,7.72705078 C45.859375,8.64013672 46.3964844,9.89746094 46.4355469,11.4990234 L46.4355469,18.7939453 C46.4355469,20.2490234 46.6210938,21.40625 46.9921875,22.265625 L46.9921875,22.5 L44.1503906,22.5 Z M39.6533203,20.4345703 C40.5029297,20.4345703 41.3085938,20.2148438 42.0703125,19.7753906 C42.8320312,19.3359375 43.3837891,18.7646484 43.7255859,18.0615234 L43.7255859,14.8095703 L41.6015625,14.8095703 C38.28125,14.8095703 36.6210938,15.78125 36.6210938,17.7246094 C36.6210938,18.5742188 36.9042969,19.2382812 37.4707031,19.7167969 C38.0371094,20.1953125 38.7646484,20.4345703 39.6533203,20.4345703 Z" id="Shape"></path>
                    <path d="M60.6738281,6.65039062 L60.7617188,8.64257812 C61.9726562,7.11914062 63.5546875,6.35742188 65.5078125,6.35742188 C68.8574219,6.35742188 70.546875,8.24707031 70.5761719,12.0263672 L70.5761719,22.5 L67.8662109,22.5 L67.8662109,12.0117188 C67.8564453,10.8691406 67.5952148,10.0244141 67.0825195,9.47753906 C66.5698242,8.93066406 65.7714844,8.65722656 64.6875,8.65722656 C63.8085938,8.65722656 63.0371094,8.89160156 62.3730469,9.36035156 C61.7089844,9.82910156 61.1914062,10.4443359 60.8203125,11.2060547 L60.8203125,22.5 L58.1103516,22.5 L58.1103516,6.65039062 L60.6738281,6.65039062 Z" id="Path"></path>
                    <path d="M81.2402344,22.7929688 C79.0917969,22.7929688 77.34375,22.0874023 75.9960938,20.6762695 C74.6484375,19.2651367 73.9746094,17.3779297 73.9746094,15.0146484 L73.9746094,14.5166016 C73.9746094,12.9443359 74.2749023,11.5405273 74.8754883,10.3051758 C75.4760742,9.06982422 76.315918,8.10302734 77.3950195,7.40478516 C78.4741211,6.70654297 79.6435547,6.35742188 80.9033203,6.35742188 C82.9638672,6.35742188 84.5654297,7.03613281 85.7080078,8.39355469 C86.8505859,9.75097656 87.421875,11.6943359 87.421875,14.2236328 L87.421875,15.3515625 L76.6845703,15.3515625 C76.7236328,16.9140625 77.1801758,18.1762695 78.0541992,19.1381836 C78.9282227,20.1000977 80.0390625,20.5810547 81.3867188,20.5810547 C82.34375,20.5810547 83.1542969,20.3857422 83.8183594,19.9951172 C84.4824219,19.6044922 85.0634766,19.0869141 85.5615234,18.4423828 L87.2167969,19.7314453 C85.8886719,21.7724609 83.8964844,22.7929688 81.2402344,22.7929688 Z M80.9033203,8.58398438 C79.8095703,8.58398438 78.8916016,8.98193359 78.1494141,9.77783203 C77.4072266,10.5737305 76.9482422,11.6894531 76.7724609,13.125 L84.7119141,13.125 L84.7119141,12.9199219 C84.6337891,11.5429688 84.2626953,10.4760742 83.5986328,9.71923828 C82.9345703,8.96240234 82.0361328,8.58398438 80.9033203,8.58398438 Z" id="Shape"></path>
                    <path d="M89.8974609,14.4433594 C89.8974609,12.0117188 90.4736328,10.0561523 91.6259766,8.57666016 C92.7783203,7.09716797 94.2871094,6.35742187 96.1523438,6.35742187 C98.0078125,6.35742187 99.4775391,6.9921875 100.561523,8.26171875 L100.561523,0 L103.271484,0 L103.271484,22.5 L100.78125,22.5 L100.649414,20.8007812 C99.5654297,22.1289062 98.0566406,22.7929688 96.1230469,22.7929688 C94.2871094,22.7929688 92.7905273,22.0410156 91.6333008,20.5371094 C90.4760742,19.0332031 89.8974609,17.0703125 89.8974609,14.6484375 L89.8974609,14.4433594 Z M92.6074219,14.7509766 C92.6074219,16.5478516 92.9785156,17.9541016 93.7207031,18.9697266 C94.4628906,19.9853516 95.4882812,20.4931641 96.796875,20.4931641 C98.515625,20.4931641 99.7705078,19.7216797 100.561523,18.1787109 L100.561523,10.8984375 C99.7509766,9.40429688 98.5058594,8.65722656 96.8261719,8.65722656 C95.4980469,8.65722656 94.4628906,9.16992188 93.7207031,10.1953125 C92.9785156,11.2207031 92.6074219,12.7392578 92.6074219,14.7509766 Z" id="Shape"></path>
                    <path d="M106.757812,14.4287109 C106.757812,12.8759766 107.062988,11.4794922 107.67334,10.2392578 C108.283691,8.99902344 109.133301,8.04199219 110.222168,7.36816406 C111.311035,6.69433594 112.553711,6.35742188 113.950195,6.35742188 C116.108398,6.35742188 117.854004,7.10449219 119.187012,8.59863281 C120.52002,10.0927734 121.186523,12.0800781 121.186523,14.5605469 L121.186523,14.7509766 C121.186523,16.2939453 120.891113,17.6782227 120.300293,18.9038086 C119.709473,20.1293945 118.864746,21.0839844 117.766113,21.7675781 C116.66748,22.4511719 115.405273,22.7929688 113.979492,22.7929688 C111.831055,22.7929688 110.090332,22.0458984 108.757324,20.5517578 C107.424316,19.0576172 106.757812,17.0800781 106.757812,14.6191406 L106.757812,14.4287109 Z M109.482422,14.7509766 C109.482422,16.5087891 109.890137,17.9199219 110.705566,18.984375 C111.520996,20.0488281 112.612305,20.5810547 113.979492,20.5810547 C115.356445,20.5810547 116.450195,20.0415039 117.260742,18.9624023 C118.071289,17.8833008 118.476562,16.3720703 118.476562,14.4287109 C118.476562,12.6904297 118.063965,11.2817383 117.23877,10.2026367 C116.413574,9.12353516 115.317383,8.58398438 113.950195,8.58398438 C112.612305,8.58398438 111.533203,9.11621094 110.712891,10.1806641 C109.892578,11.2451172 109.482422,12.7685547 109.482422,14.7509766 Z" id="Shape"></path>
                    <path d="M133.813477,18.2958984 C133.813477,17.5634766 133.537598,16.9946289 132.98584,16.5893555 C132.434082,16.184082 131.472168,15.8349609 130.100098,15.5419922 C128.728027,15.2490234 127.63916,14.8974609 126.833496,14.4873047 C126.027832,14.0771484 125.432129,13.5888672 125.046387,13.0224609 C124.660645,12.4560547 124.467773,11.7822266 124.467773,11.0009766 C124.467773,9.70214844 125.01709,8.60351562 126.115723,7.70507812 C127.214355,6.80664062 128.618164,6.35742188 130.327148,6.35742188 C132.124023,6.35742188 133.581543,6.82128906 134.699707,7.74902344 C135.817871,8.67675781 136.376953,9.86328125 136.376953,11.3085938 L133.652344,11.3085938 C133.652344,10.5664062 133.337402,9.92675781 132.70752,9.38964844 C132.077637,8.85253906 131.28418,8.58398438 130.327148,8.58398438 C129.34082,8.58398438 128.569336,8.79882812 128.012695,9.22851562 C127.456055,9.65820312 127.177734,10.2197266 127.177734,10.9130859 C127.177734,11.5673828 127.436523,12.0605469 127.954102,12.3925781 C128.47168,12.7246094 129.406738,13.0419922 130.759277,13.3447266 C132.111816,13.6474609 133.208008,14.0087891 134.047852,14.4287109 C134.887695,14.8486328 135.510254,15.3540039 135.915527,15.9448242 C136.320801,16.5356445 136.523438,17.2558594 136.523438,18.1054688 C136.523438,19.5214844 135.957031,20.6567383 134.824219,21.5112305 C133.691406,22.3657227 132.22168,22.7929688 130.415039,22.7929688 C129.145508,22.7929688 128.022461,22.5683594 127.045898,22.1191406 C126.069336,21.6699219 125.305176,21.0424805 124.753418,20.2368164 C124.20166,19.4311523 123.925781,18.5595703 123.925781,17.6220703 L126.635742,17.6220703 C126.68457,18.5302734 127.04834,19.2504883 127.727051,19.7827148 C128.405762,20.3149414 129.301758,20.5810547 130.415039,20.5810547 C131.44043,20.5810547 132.263184,20.3735352 132.883301,19.9584961 C133.503418,19.543457 133.813477,18.9892578 133.813477,18.2958984 Z" id="Path"></path>
                    <path d="M143.730469,2.8125 L143.730469,6.65039062 L146.689453,6.65039062 L146.689453,8.74511719 L143.730469,8.74511719 L143.730469,18.5742188 C143.730469,19.2089844 143.862305,19.6850586 144.125977,20.0024414 C144.389648,20.3198242 144.838867,20.4785156 145.473633,20.4785156 C145.786133,20.4785156 146.21582,20.4199219 146.762695,20.3027344 L146.762695,22.5 C146.049805,22.6953125 145.356445,22.7929688 144.682617,22.7929688 C143.47168,22.7929688 142.558594,22.4267578 141.943359,21.6943359 C141.328125,20.9619141 141.020508,19.921875 141.020508,18.5742188 L141.020508,8.74511719 L138.134766,8.74511719 L138.134766,6.65039062 L141.020508,6.65039062 L141.020508,2.8125 L143.730469,2.8125 Z" id="Path"></path>
                    <path d="M159.638672,20.9326172 C158.583984,22.1728516 157.036133,22.7929688 154.995117,22.7929688 C153.305664,22.7929688 152.019043,22.3022461 151.135254,21.3208008 C150.251465,20.3393555 149.804688,18.8867188 149.794922,16.9628906 L149.794922,6.65039062 L152.504883,6.65039062 L152.504883,16.8896484 C152.504883,19.2919922 153.481445,20.4931641 155.43457,20.4931641 C157.504883,20.4931641 158.881836,19.7216797 159.56543,18.1787109 L159.56543,6.65039062 L162.275391,6.65039062 L162.275391,22.5 L159.697266,22.5 L159.638672,20.9326172 Z" id="Path"></path>
                    <path d="M179.780273,14.7509766 C179.780273,17.1630859 179.228516,19.1064453 178.125,20.5810547 C177.021484,22.0556641 175.527344,22.7929688 173.642578,22.7929688 C171.71875,22.7929688 170.205078,22.1826172 169.101562,20.9619141 L169.101562,28.59375 L166.391602,28.59375 L166.391602,6.65039062 L168.867188,6.65039062 L168.999023,8.40820312 C170.102539,7.04101562 171.635742,6.35742188 173.598633,6.35742188 C175.50293,6.35742188 177.009277,7.07519531 178.117676,8.51074219 C179.226074,9.94628906 179.780273,11.9433594 179.780273,14.5019531 L179.780273,14.7509766 Z M177.070312,14.4433594 C177.070312,12.65625 176.689453,11.2451172 175.927734,10.2099609 C175.166016,9.17480469 174.121094,8.65722656 172.792969,8.65722656 C171.152344,8.65722656 169.921875,9.38476562 169.101562,10.8398438 L169.101562,18.4130859 C169.912109,19.8583984 171.152344,20.5810547 172.822266,20.5810547 C174.121094,20.5810547 175.153809,20.065918 175.92041,19.0356445 C176.687012,18.0053711 177.070312,16.4746094 177.070312,14.4433594 Z" id="Shape"></path>
                    <path d="M185.786133,6.65039062 L185.874023,8.64257812 C187.084961,7.11914062 188.666992,6.35742188 190.620117,6.35742188 C193.969727,6.35742188 195.65918,8.24707031 195.688477,12.0263672 L195.688477,22.5 L192.978516,22.5 L192.978516,12.0117188 C192.96875,10.8691406 192.70752,10.0244141 192.194824,9.47753906 C191.682129,8.93066406 190.883789,8.65722656 189.799805,8.65722656 C188.920898,8.65722656 188.149414,8.89160156 187.485352,9.36035156 C186.821289,9.82910156 186.303711,10.4443359 185.932617,11.2060547 L185.932617,22.5 L183.222656,22.5 L183.222656,6.65039062 L185.786133,6.65039062 Z" id="Path"></path>
                    <path d="M209.560547,22.5 C209.404297,22.1875 209.277344,21.6308594 209.179688,20.8300781 C207.919922,22.1386719 206.416016,22.7929688 204.667969,22.7929688 C203.105469,22.7929688 201.82373,22.3510742 200.822754,21.4672852 C199.821777,20.5834961 199.321289,19.4628906 199.321289,18.1054688 C199.321289,16.4550781 199.94873,15.1733398 201.203613,14.2602539 C202.458496,13.347168 204.223633,12.890625 206.499023,12.890625 L209.135742,12.890625 L209.135742,11.6455078 C209.135742,10.6982422 208.852539,9.94384766 208.286133,9.38232422 C207.719727,8.82080078 206.884766,8.54003906 205.78125,8.54003906 C204.814453,8.54003906 204.003906,8.78417969 203.349609,9.27246094 C202.695312,9.76074219 202.368164,10.3515625 202.368164,11.0449219 L199.643555,11.0449219 C199.643555,10.2539062 199.924316,9.48974609 200.48584,8.75244141 C201.047363,8.01513672 201.809082,7.43164062 202.770996,7.00195312 C203.73291,6.57226562 204.790039,6.35742188 205.942383,6.35742188 C207.768555,6.35742188 209.199219,6.81396484 210.234375,7.72705078 C211.269531,8.64013672 211.806641,9.89746094 211.845703,11.4990234 L211.845703,18.7939453 C211.845703,20.2490234 212.03125,21.40625 212.402344,22.265625 L212.402344,22.5 L209.560547,22.5 Z M205.063477,20.4345703 C205.913086,20.4345703 206.71875,20.2148438 207.480469,19.7753906 C208.242188,19.3359375 208.793945,18.7646484 209.135742,18.0615234 L209.135742,14.8095703 L207.011719,14.8095703 C203.691406,14.8095703 202.03125,15.78125 202.03125,17.7246094 C202.03125,18.5742188 202.314453,19.2382812 202.880859,19.7167969 C203.447266,20.1953125 204.174805,20.4345703 205.063477,20.4345703 Z M207.568359,0 L210.849609,0 L206.923828,4.30664062 L204.741211,4.30664062 L207.568359,0 Z" id="Shape"></path>
                    <path d="M2.56347656,34.6503906 L2.65136719,36.6425781 C3.86230469,35.1191406 5.44433594,34.3574219 7.39746094,34.3574219 C10.7470703,34.3574219 12.4365234,36.2470703 12.4658203,40.0263672 L12.4658203,50.5 L9.75585938,50.5 L9.75585938,40.0117188 C9.74609375,38.8691406 9.48486328,38.0244141 8.97216797,37.4775391 C8.45947266,36.9306641 7.66113281,36.6572266 6.57714844,36.6572266 C5.69824219,36.6572266 4.92675781,36.8916016 4.26269531,37.3603516 C3.59863281,37.8291016 3.08105469,38.4443359 2.70996094,39.2060547 L2.70996094,50.5 L0,50.5 L0,34.6503906 L2.56347656,34.6503906 Z" id="Path"></path>
                    <path d="M26.3378906,50.5 C26.1816406,50.1875 26.0546875,49.6308594 25.9570312,48.8300781 C24.6972656,50.1386719 23.1933594,50.7929688 21.4453125,50.7929688 C19.8828125,50.7929688 18.6010742,50.3510742 17.6000977,49.4672852 C16.5991211,48.5834961 16.0986328,47.4628906 16.0986328,46.1054688 C16.0986328,44.4550781 16.7260742,43.1733398 17.980957,42.2602539 C19.2358398,41.347168 21.0009766,40.890625 23.2763672,40.890625 L25.9130859,40.890625 L25.9130859,39.6455078 C25.9130859,38.6982422 25.6298828,37.9438477 25.0634766,37.3823242 C24.4970703,36.8208008 23.6621094,36.5400391 22.5585938,36.5400391 C21.5917969,36.5400391 20.78125,36.7841797 20.1269531,37.2724609 C19.4726562,37.7607422 19.1455078,38.3515625 19.1455078,39.0449219 L16.4208984,39.0449219 C16.4208984,38.2539062 16.7016602,37.4897461 17.2631836,36.7524414 C17.824707,36.0151367 18.5864258,35.4316406 19.5483398,35.0019531 C20.5102539,34.5722656 21.5673828,34.3574219 22.7197266,34.3574219 C24.5458984,34.3574219 25.9765625,34.8139648 27.0117188,35.7270508 C28.046875,36.6401367 28.5839844,37.8974609 28.6230469,39.4990234 L28.6230469,46.7939453 C28.6230469,48.2490234 28.8085938,49.40625 29.1796875,50.265625 L29.1796875,50.5 L26.3378906,50.5 Z M21.8408203,48.4345703 C22.6904297,48.4345703 23.4960938,48.2148438 24.2578125,47.7753906 C25.0195312,47.3359375 25.5712891,46.7646484 25.9130859,46.0615234 L25.9130859,42.8095703 L23.7890625,42.8095703 C20.46875,42.8095703 18.8085938,43.78125 18.8085938,45.7246094 C18.8085938,46.5742188 19.0917969,47.2382812 19.6582031,47.7167969 C20.2246094,48.1953125 20.9521484,48.4345703 21.8408203,48.4345703 Z" id="Shape"></path>
                    <path d="M43.9746094,30.8125 L43.9746094,34.6503906 L46.9335938,34.6503906 L46.9335938,36.7451172 L43.9746094,36.7451172 L43.9746094,46.5742188 C43.9746094,47.2089844 44.1064453,47.6850586 44.3701172,48.0024414 C44.6337891,48.3198242 45.0830078,48.4785156 45.7177734,48.4785156 C46.0302734,48.4785156 46.4599609,48.4199219 47.0068359,48.3027344 L47.0068359,50.5 C46.2939453,50.6953125 45.6005859,50.7929688 44.9267578,50.7929688 C43.7158203,50.7929688 42.8027344,50.4267578 42.1875,49.6943359 C41.5722656,48.9619141 41.2646484,47.921875 41.2646484,46.5742188 L41.2646484,36.7451172 L38.3789062,36.7451172 L38.3789062,34.6503906 L41.2646484,34.6503906 L41.2646484,30.8125 L43.9746094,30.8125 Z" id="Path"></path>
                    <path d="M57.7587891,37.0820312 C57.3486328,37.0136719 56.9042969,36.9794922 56.4257812,36.9794922 C54.6484375,36.9794922 53.4423828,37.7363281 52.8076172,39.25 L52.8076172,50.5 L50.0976562,50.5 L50.0976562,34.6503906 L52.734375,34.6503906 L52.7783203,36.4814453 C53.6669922,35.0654297 54.9267578,34.3574219 56.5576172,34.3574219 C57.0849609,34.3574219 57.4853516,34.4257812 57.7587891,34.5625 L57.7587891,37.0820312 Z" id="Path"></path>
                    <path d="M62.9589844,36.5693359 C64.1601562,35.0947266 65.7226562,34.3574219 67.6464844,34.3574219 C70.9960938,34.3574219 72.6855469,36.2470703 72.7148438,40.0263672 L72.7148438,50.5 L70.0048828,50.5 L70.0048828,40.0117188 C69.9951172,38.8691406 69.7338867,38.0244141 69.2211914,37.4775391 C68.7084961,36.9306641 67.9101562,36.6572266 66.8261719,36.6572266 C65.9472656,36.6572266 65.1757812,36.8916016 64.5117188,37.3603516 C63.8476562,37.8291016 63.3300781,38.4443359 62.9589844,39.2060547 L62.9589844,50.5 L60.2490234,50.5 L60.2490234,28 L62.9589844,28 L62.9589844,36.5693359 Z" id="Path"></path>
                    <path d="M86.5576172,48.9326172 C85.5029297,50.1728516 83.9550781,50.7929688 81.9140625,50.7929688 C80.2246094,50.7929688 78.9379883,50.3022461 78.0541992,49.3208008 C77.1704102,48.3393555 76.7236328,46.8867188 76.7138672,44.9628906 L76.7138672,34.6503906 L79.4238281,34.6503906 L79.4238281,44.8896484 C79.4238281,47.2919922 80.4003906,48.4931641 82.3535156,48.4931641 C84.4238281,48.4931641 85.8007812,47.7216797 86.484375,46.1787109 L86.484375,34.6503906 L89.1943359,34.6503906 L89.1943359,50.5 L86.6162109,50.5 L86.5576172,48.9326172 Z" id="Path"></path>
                </g>
                <g id="logo" transform="translate(0.000000, 0.734375)">
                    <g id="NT" transform="translate(0.000000, 56.000000)" fill="#1A8BA6">
                        <polygon id="Path" points="41.5625 49.765625 29.6337891 49.765625 11.9970703 18.7988281 11.9970703 49.765625 0 49.765625 0 0 11.9970703 0 29.5996094 30.9667969 29.5996094 0 41.5625 0"></polygon>
                        <polygon id="Path" points="88.2177734 9.26269531 73.28125 9.26269531 73.28125 49.765625 61.2841797 49.765625 61.2841797 9.26269531 46.6210938 9.26269531 46.6210938 0 88.2177734 0"></polygon>
                    </g>
                    <g id="DN">
                        <path d="M0,49.765625 L0,0 L16.0302734,0 C20.4280599,0 24.3815104,0.996907552 27.890625,2.99072266 C31.3997396,4.98453776 34.1398112,7.79866536 36.1108398,11.4331055 C38.0818685,15.0675456 39.078776,19.140625 39.1015625,23.6523438 L39.1015625,25.9423828 C39.1015625,30.4996745 38.1388346,34.5841471 36.2133789,38.1958008 C34.2879232,41.8074544 31.5763346,44.6329753 28.0786133,46.6723633 C24.5808919,48.7117513 20.6787109,49.7428385 16.3720703,49.765625 L0,49.765625 Z M11.9970703,9.26269531 L11.9970703,40.5371094 L16.1669922,40.5371094 C19.6077474,40.5371094 22.2509766,39.3123372 24.0966797,36.862793 C25.9423828,34.4132487 26.8652344,30.773112 26.8652344,25.9423828 L26.8652344,23.7890625 C26.8652344,18.9811198 25.9423828,15.3580729 24.0966797,12.9199219 C22.2509766,10.4817708 19.5621745,9.26269531 16.0302734,9.26269531 L11.9970703,9.26269531 Z" id="Shape" fill="#1A8BA6"></path>
                        <polygon id="Path" fill="#706F6F" points="86.8164062 49.765625 74.8876953 49.765625 57.2509766 18.7988281 57.2509766 49.765625 45.2539062 49.765625 45.2539062 0 57.2509766 0 74.8535156 30.9667969 74.8535156 0 86.8164062 0"></polygon>
                    </g>
                </g>
            </g>
        </g>
    </g>
</svg>