<?xml version="1.0" encoding="UTF-8"?>
<svg width="88.6848788px" height="18.3797705px" viewBox="0 0 88.6848788 18.3797705" version="1.1" xmlns="http://www.w3.org/2000/svg" xmlns:xlink="http://www.w3.org/1999/xlink">
    <title>object</title>
    <g id="Page-1" stroke="none" stroke-width="1" fill="none" fill-rule="evenodd">
        <g id="logo-final" fill-rule="nonzero">
            <g id="object" transform="translate(-0, -0)">
                <polygon id="path1538" fill="#0C4DA2" points="0 9.19343425 0 0.0071042527 9.186333 0.0071042527 18.372668 0.0071042527 18.372668 2.63177425 18.372668 5.25643425 11.853333 5.25643425 5.334 5.25643425 5.334 6.18777425 5.334 7.11910425 9.271 7.11910425 13.207999 7.11910425 13.207999 9.19343425 13.207999 11.2677743 9.271 11.2677743 5.334 11.2677743 5.334 12.1567743 5.334 13.0457743 11.853333 13.0457743 18.372668 13.0457743 18.372668 15.7127643 18.372668 18.3797643 9.186333 18.3797643 0 18.3797643"></polygon>
                <path d="M28.575001,18.2843243 C24.871141,17.8216743 21.754531,15.0659443 20.827101,11.4335743 C20.544611,10.3271743 20.495221,9.30686425 20.492191,4.51560425 L20.489191,0.0071042527 L23.156191,0.0071042527 L25.823191,0.0071042527 L25.823191,4.81531425 C25.823191,8.86200425 25.843791,9.70244425 25.952981,10.1218143 C26.251341,11.2673143 26.998711,12.1710743 28.067231,12.6785243 C29.565491,13.3900343 31.338381,13.0586443 32.504321,11.8491443 C32.956621,11.3799543 33.422411,10.4421543 33.529001,9.78610425 C33.575401,9.50071425 33.611801,7.24682425 33.612001,4.64260425 L33.612491,0.0071042527 L36.237151,0.0071042527 L38.861821,0.0071042527 L38.861821,5.03368425 C38.861821,9.07395425 38.837421,10.1994843 38.737551,10.7698443 C37.899061,15.5576143 33.396821,18.8866343 28.574821,18.2843243 L28.575001,18.2843243 Z" id="path1536" fill="#0C4DA2"></path>
                <path d="M43.151781,18.3233243 C43.120681,18.2923243 43.095281,14.1584343 43.095281,9.13699425 L43.095281,0.0071042527 L45.719951,0.0071042527 L48.344621,0.0071042527 L48.344621,9.19343425 L48.344621,18.3797643 L45.776401,18.3797643 C44.363871,18.3797643 43.182771,18.3543643 43.151731,18.3233643 L43.151781,18.3233243 Z" id="path1534" fill="#717174"></path>
                <path d="M50.4611434,0 L50.4611434,9.18962199 L50.4616725,9.19015116 L50.4616725,18.3797705 L53.086318,18.3797705 L55.7109635,18.3797705 L55.7109635,16.2755075 L55.7109635,14.1712419 L59.1190243,14.120598 C61.8063548,14.0806195 62.6596043,14.0407097 63.1565051,13.9319792 C65.801235,13.3532799 67.8670276,11.3310219 68.4967465,8.70439204 C68.7227562,7.76055186 68.723804,6.31228621 68.4988632,5.37384618 C67.9091943,2.91438538 66.1410606,1.07354157 63.6107893,0.284752517 L62.8650983,0.0522075827 L56.6634105,0.0263577913 L50.4611434,0 Z M55.6262042,4.83278121 L58.6952676,4.83489788 C61.4826874,4.83648538 61.7952318,4.85127558 62.1028099,4.99147829 C63.8680014,5.79613705 63.9195554,8.16945746 62.191694,9.0945863 C61.8610548,9.27160578 61.7417013,9.2786437 58.7376407,9.30284249 L55.6262042,9.32816311 L55.6262042,7.08075526 L55.6262042,4.83278121 Z" id="path1532" fill="#717174"></path>
                <path d="M79.7120714,0.025839208 C76.3998665,-0.0333718954 73.1049335,1.67822031 71.4216226,4.92011488 C69.1762706,9.24442513 70.6655414,14.5715988 74.8028097,17.013949 C76.1063113,17.7834394 77.3158434,18.1787057 78.6976642,18.2872563 C81.4923732,18.506797 83.9467249,17.6359236 85.9147936,15.7261717 C89.5648239,12.1843031 89.6142666,6.31039973 86.024347,2.71197913 C84.2525383,0.935974113 81.9783176,0.0663522075 79.7120714,0.025839208 L79.7120714,0.025839208 Z M79.5503237,4.83533965 C80.7824856,4.83163292 81.7794806,5.26461031 82.6746824,6.19187169 C84.3470025,7.92404055 84.3100799,10.5395711 82.5888992,12.2607518 C81.9951795,12.8544715 81.1302275,13.3223819 80.3580278,13.4679133 C78.9406364,13.7350525 77.6230696,13.3376219 76.5406883,12.316563 C75.6246003,11.4523624 75.1826985,10.4371006 75.184692,9.19943803 C75.1865508,7.94016955 75.5820526,6.97521033 76.4538732,6.10247163 C77.3395818,5.21582114 78.2604138,4.83936404 79.5503237,4.83533965 L79.5503237,4.83533965 Z" id="path1528" fill="#717174"></path>
            </g>
        </g>
    </g>
</svg>